<svg xmlns="http://www.w3.org/2000/svg" height="0.9985916249881301in" width="0.9985916249881301in" viewBox="-0.49929581249406507 -0.49929581249406507 0.9985916249881301 0.9985916249881301" style="stroke-width:0"><path d="M0.4511653163444507,-0.002791105686255355 C0.4467784199799021,-0.00103882814460176 0.44402004714921955,0.0027961054432489706 0.4437541674142475,0.007512528268103038 L0.4417869853544008,0.042408239175442286 C0.44152110561942876,0.047124662000296365 0.4438309970619304,0.05124530974308277 0.4479931621636271,0.05347952503317717 L0.4869438022844157,0.07438790170505767 C0.4907720337761607,0.07644286423631116 0.49251488115167896,0.08042290322919718 0.49142872621132905,0.08462986113305093 L0.47097700805747716,0.16384463440197247 C0.46989085311712725,0.16805159230582623 0.4664391240374782,0.17069049240244782 0.46209456513333014,0.17063539895790658 L0.41789051145372785,0.17007484640616877 C0.41316698010717695,0.17001494720396632 0.4091510103575833,0.17250238027173348 0.40710047263723287,0.1767580390167098 L0.3919290229705766,0.2082446641136822 C0.38987848525022617,0.21250032285865852 0.3904356430544995,0.21719126215451504 0.39342598502703396,0.22084819955944449 L0.421410394862866,0.255070785478872 C0.42416081946896267,0.2584343240687238 0.42424790550475044,0.2627783594485999 0.421634496095763,0.2662494282494536 L0.3724253909601564,0.3316078022442529 C0.36981198155116896,0.3350788710451066 0.36561313635606346,0.3361959773009229 0.3616203706551892,0.33448248688158394 L0.3209956643810945,0.31704844486557554 C0.31665461288113544,0.31518548803006474 0.31199244120214975,0.3159467314418177 0.3084694212761736,0.31909374064063617 L0.28240341968492255,0.342377726683195 C0.2788803997589464,0.3455247358820135 0.27760000169993876,0.35007181374661656 0.2789632680855101,0.3545947376967007 L0.29172107491818716,0.39692145438595633 C0.29297496542501833,0.40108150077465476 0.2913930320615639,0.40512819253371346 0.2876502360758419,0.4073349334719541 L0.2171753841337279,0.44888668822705874 C0.21343258814800586,0.4510934291652994 0.20912586295577226,0.45051867227945575 0.2060927528416188,0.44740764826883417 L0.17523213723938313,0.41575429164550803 C0.1719344513251548,0.41237189546714964 0.16733585109221122,0.4112910568141377 0.16287669680808406,0.4128503128439877 L0.12988445574561333,0.4243868840270124 C0.12542530146148614,0.42594614005686243 0.12250227653684426,0.4296571051046897 0.12203092238628975,0.4343574414289359 L0.11761986577534361,0.47834442996472276 C0.11718632871979003,0.4826676548005029 0.11417621097141763,0.4858009308017798 0.10987383516925717,0.48640738757371665 L0.02886239377269887,0.4978266450952566 C0.024560017970538407,0.4984331018671935 0.020801072651133175,0.49625398336537546 0.01918938164336867,0.4922190509675855 L0.0027911056862553667,0.45116531634445073 C0.0010388281446017823,0.44677841997990214 -0.0027961054432489568,0.44402004714921955 -0.007512528268103039,0.4437541674142475 L-0.042408239175442244,0.4417869853544008 C-0.04712466200029633,0.44152110561942876 -0.051245309743082744,0.4438309970619304 -0.05347952503317714,0.4479931621636271 L-0.07438790170505766,0.4869438022844157 C-0.07644286423631115,0.4907720337761607 -0.08042290322919715,0.49251488115167896 -0.0846298611330509,0.49142872621132905 L-0.16384463440197244,0.47097700805747716 C-0.1680515923058262,0.46989085311712725 -0.1706904924024478,0.4664391240374782 -0.17063539895790655,0.46209456513333014 L-0.17007484640616874,0.41789051145372785 C-0.1700149472039663,0.41316698010717695 -0.17250238027173345,0.4091510103575833 -0.17675803901670978,0.40710047263723287 L-0.20824466411368225,0.3919290229705765 C-0.21250032285865858,0.3898784852502261 -0.2171912621545151,0.3904356430544994 -0.22084819955944454,0.39342598502703385 L-0.2550707854788722,0.4214103948628659 C-0.25843432406872396,0.42416081946896256 -0.2627783594486,0.4242479055047504 -0.2662494282494537,0.4216344960957629 L-0.33160780224425296,0.37242539096015637 C-0.33507887104510664,0.36981198155116884 -0.33619597730092293,0.3656131363560634 -0.334482486881584,0.36162037065518915 L-0.31704844486557554,0.32099566438109456 C-0.31518548803006474,0.3166546128811355 -0.31594673144181773,0.31199244120214975 -0.3190937406406362,0.3084694212761736 L-0.34237772668319494,0.2824034196849226 C-0.34552473588201343,0.27888039975894646 -0.35007181374661644,0.2776000016999389 -0.3545947376967006,0.2789632680855102 L-0.39692145438595633,0.29172107491818716 C-0.40108150077465476,0.29297496542501833 -0.40512819253371346,0.2913930320615639 -0.4073349334719541,0.2876502360758419 L-0.4488866882270587,0.217175384133728 C-0.4510934291652993,0.213432588148006 -0.4505186722794557,0.2091258629557724 -0.4474076482688341,0.20609275284161893 L-0.415754291645508,0.17523213723938316 C-0.41237189546714964,0.17193445132515484 -0.4112910568141377,0.16733585109221127 -0.4128503128439877,0.16287669680808411 L-0.42438688402701247,0.12988445574561322 C-0.4259461400568625,0.12542530146148606 -0.4296571051046897,0.12250227653684416 -0.4343574414289359,0.12203092238628965 L-0.4783444299647229,0.11761986577534343 C-0.482667654800503,0.11718632871978985 -0.48580093080177983,0.11417621097141746 -0.4864073875737167,0.109873835169257 L-0.4978266450952566,0.028862393772698804 C-0.4984331018671935,0.024560017970538334 -0.49625398336537546,0.020801072651133103 -0.4922190509675855,0.0191893816433686 L-0.45116531634445073,0.002791105686255386 C-0.4467784199799021,0.0010388281446018072 -0.44402004714921955,-0.002796105443248935 -0.4437541674142475,-0.007512528268103023 L-0.4417869853544008,-0.042408239175442126 C-0.44152110561942876,-0.0471246620002962 -0.44383099706193047,-0.05124530974308261 -0.4479931621636271,-0.05347952503317702 L-0.4869438022844157,-0.07438790170505762 C-0.4907720337761607,-0.07644286423631112 -0.49251488115167896,-0.08042290322919712 -0.49142872621132905,-0.08462986113305086 L-0.4709770080574772,-0.1638446344019723 C-0.4698908531171273,-0.16805159230582606 -0.4664391240374783,-0.17069049240244766 -0.4620945651333302,-0.17063539895790641 L-0.4178905114537279,-0.17007484640616868 C-0.413166980107177,-0.17001494720396623 -0.40915101035758333,-0.1725023802717334 -0.4071004726372329,-0.17675803901670972 L-0.3919290229705766,-0.20824466411368223 C-0.38987848525022617,-0.21250032285865855 -0.39043564305449946,-0.21719126215451506 -0.3934259850270339,-0.2208481995594445 L-0.4214103948628659,-0.25507078547887213 C-0.42416081946896256,-0.2584343240687239 -0.4242479055047504,-0.26277835944859995 -0.4216344960957629,-0.26624942824945363 L-0.37242539096015637,-0.33160780224425296 C-0.3698119815511689,-0.33507887104510664 -0.3656131363560634,-0.33619597730092293 -0.36162037065518915,-0.334482486881584 L-0.32099566438109456,-0.31704844486557554 C-0.3166546128811355,-0.31518548803006474 -0.31199244120214975,-0.31594673144181773 -0.3084694212761736,-0.3190937406406362 L-0.28240341968492266,-0.3423777266831949 C-0.2788803997589465,-0.3455247358820134 -0.277600001699939,-0.35007181374661644 -0.27896326808551025,-0.3545947376967006 L-0.2917210749181872,-0.39692145438595633 C-0.2929749654250184,-0.40108150077465476 -0.291393032061564,-0.40512819253371346 -0.28765023607584195,-0.4073349334719541 L-0.2171753841337279,-0.44888668822705874 C-0.21343258814800586,-0.4510934291652994 -0.20912586295577223,-0.45051867227945575 -0.20609275284161876,-0.44740764826883417 L-0.17523213723938338,-0.415754291645508 C-0.17193445132515506,-0.4123718954671496 -0.16733585109221144,-0.41129105681413763 -0.16287669680808425,-0.41285031284398765 L-0.12988445574561364,-0.4243868840270123 C-0.12542530146148648,-0.4259461400568623 -0.12250227653684458,-0.4296571051046895 -0.12203092238629007,-0.43435744142893573 L-0.11761986577534389,-0.47834442996472276 C-0.1171863287197903,-0.4826676548005029 -0.11417621097141792,-0.4858009308017797 -0.10987383516925746,-0.4864073875737166 L-0.028862393772699037,-0.4978266450952566 C-0.02456001797053858,-0.4984331018671935 -0.020801072651133345,-0.4962539833653755 -0.019189381643368836,-0.49221905096758556 L-0.002791105686255427,-0.4511653163444507 C-0.0010388281446018384,-0.4467784199799021 0.0027961054432488934,-0.44402004714921955 0.007512528268102964,-0.4437541674142475 L0.0424082391754421,-0.4417869853544008 C0.04712466200029618,-0.44152110561942876 0.0512453097430826,-0.4438309970619304 0.053479525033176996,-0.4479931621636271 L0.07438790170505757,-0.4869438022844157 C0.07644286423631108,-0.4907720337761607 0.08042290322919708,-0.49251488115167896 0.08462986113305082,-0.49142872621132905 L0.1638446344019725,-0.47097700805747716 C0.16805159230582625,-0.46989085311712725 0.17069049240244785,-0.4664391240374782 0.1706353989579066,-0.46209456513333014 L0.17007484640616885,-0.4178905114537278 C0.1700149472039664,-0.4131669801071769 0.17250238027173356,-0.4091510103575832 0.1767580390167099,-0.4071004726372328 L0.2082446641136822,-0.3919290229705766 C0.21250032285865852,-0.38987848525022617 0.21719126215451504,-0.3904356430544995 0.22084819955944449,-0.39342598502703396 L0.25507078547887213,-0.42141039486286597 C0.2584343240687239,-0.42416081946896256 0.26277835944859995,-0.4242479055047504 0.26624942824945363,-0.4216344960957629 L0.33160780224425307,-0.37242539096015626 C0.33507887104510675,-0.36981198155116873 0.33619597730092304,-0.3656131363560633 0.3344824868815841,-0.36162037065518904 L0.3170484448655755,-0.32099566438109456 C0.31518548803006463,-0.31665461288113544 0.3159467314418176,-0.31199244120214975 0.31909374064063617,-0.3084694212761736 L0.3423777266831949,-0.28240341968492266 C0.3455247358820134,-0.2788803997589465 0.3500718137466164,-0.277600001699939 0.3545947376967005,-0.27896326808551025 L0.39692145438595633,-0.2917210749181872 C0.40108150077465476,-0.2929749654250184 0.40512819253371346,-0.291393032061564 0.4073349334719541,-0.28765023607584195 L0.44888668822705874,-0.21717538413372792 C0.4510934291652994,-0.2134325881480059 0.45051867227945575,-0.20912586295577226 0.44740764826883417,-0.2060927528416188 L0.415754291645508,-0.1752321372393834 C0.4123718954671496,-0.17193445132515509 0.41129105681413763,-0.16733585109221147 0.41285031284398765,-0.16287669680808428 L0.4243868840270123,-0.12988445574561366 C0.4259461400568623,-0.1254253014614865 0.4296571051046895,-0.12250227653684459 0.43435744142893573,-0.12203092238629008 L0.4783444299647227,-0.11761986577534392 C0.48266765480050283,-0.11718632871979033 0.48580093080177966,-0.11417621097141793 0.48640738757371654,-0.10987383516925747 L0.4978266450952566,-0.028862393772699058 C0.4984331018671935,-0.024560017970538604 0.4962539833653755,-0.020801072651133377 0.49221905096758556,-0.01918938164336886  Z" style="stroke:black;fill:#00AA00;opacity:1.0"></path><circle cx="0" cy="0" r="0.05"></circle></svg>