<svg xmlns="http://www.w3.org/2000/svg" height="1.5078874428821956in" width="1.5078874428821956in" viewBox="-0.7539437214410978 -0.7539437214410978 1.5078874428821956 1.5078874428821956" style="stroke-width:0"><path d="M0.7057544506571206,-0.0029339749349521008 C0.7014044534584903,-0.0010920029839764026 0.6987253938397006,0.0027987521940375897 0.6985563991077108,0.007519639512840315 L0.6973060465563446,0.042448382168173274 C0.6971370518243549,0.04716926948697608 0.6995310540204496,0.051241626271611655 0.7037382106993263,0.053389920705728296 L0.7440869429648751,0.07399313650345433 C0.747737047376046,0.07585698413000778 0.749578543298787,0.07951841594747835 0.7488985677889664,0.08356005218710974 L0.735012331277849,0.16609701992323334 C0.7343323557680284,0.17013865616286472 0.7313941346834295,0.17299593582111944 0.7273350851136108,0.1735627751080536 L0.6824658194991859,0.17982869083257513 C0.6777873074392866,0.18048203699017443 0.674192533023428,0.1835468262480782 0.6728074410994032,0.1880631141771494 L0.6625594694573873,0.2214780737343539 C0.6611743775333625,0.22599436166342515 0.6624328025884468,0.2305475696179347 0.6659405843657813,0.2337115549685446 L0.6995819622802893,0.26405575356824174 C0.7026252931367697,0.26680080866522105 0.7034563933208456,0.2708140944351964 0.7017535349824726,0.2745420246473773 L0.6669783213313051,0.3506725909334115 C0.665275462992932,0.35440052114559245 0.6616978409712306,0.3563999737850151 0.6576303913585843,0.3558969391579358 L0.6126682705704738,0.3503363285008251 C0.6079800765145809,0.3497565244041132 0.6037145652374488,0.3517864874187843 0.6012077678470386,0.35579039839927645 L0.5826605594462024,0.38541440058536075 C0.5801537620557922,0.3894183115658529 0.580190850382008,0.3941420770926685 0.5827602077265583,0.3981061329868606 L0.6074016269801574,0.4361234074001187 C0.6096307863134203,0.43956259899908273 0.6093948526547442,0.44365423992860736 0.6067851584694726,0.44681441183007364 L0.5534908410198242,0.5113504043853346 C0.5508811468345525,0.5145105762868009 0.5469079329042273,0.5155159425142665 0.543109273218077,0.5139773149517052 L0.5011183914845728,0.49696912433990076 C0.4967400081099885,0.49519568267989705 0.4920944475160287,0.4960524808265581 0.4886367787587109,0.49927115494192637 L0.4630542952008603,0.5230853729638871 C0.4595966264435425,0.5263040470792554 0.45840985053274963,0.5308764533641163 0.4598656859875484,0.5353704359436134 L0.4738278745799766,0.5784699717456855 C0.47509094886532,0.5823689246226977 0.47380405985283197,0.5862600821441809 0.47046537616666434,0.5886371352422786 L0.4022838745797048,0.6371805328248955 C0.3989451908935372,0.6395575859229932 0.3948471530178937,0.6395003516915463 0.3915761556382685,0.6370309861191892 L0.35541812215629576,0.6097342956355216 C0.35164792905437725,0.6068880735306044 0.3469389064209163,0.6065133174314864 0.3427660007084344,0.608727407359879 L0.3118916459709839,0.6251089416143756 C0.307718740258502,0.6273230315427681 0.305388976927781,0.6314324766536197 0.30563207771246564,0.6361501284322866 L0.3079635355647564,0.6813947634836117 C0.30817444837696323,0.685487770443428 0.3059243033701796,0.6889132686022225 0.30208415595889265,0.6903452106565822 L0.22366192689251443,0.7195878609430574 C0.2198217794812275,0.7210198029974171 0.2158781921691629,0.7199038687253467 0.21335777016190552,0.7166720483261305 L0.18549669515928524,0.6809470823171477 C0.18259162475938961,0.6772220451001627 0.17814005219687004,0.6756412737641068 0.1735362861574769,0.6766998929358602 L0.13947409649350018,0.6845323689352142 C0.13487033045410707,0.6855909881069676 0.1315563492243306,0.6889574201506843 0.13057014842216785,0.693577240956093 L0.12111199053460395,0.7378836281482184 C0.1202563685140721,0.7418917575305412 0.11719631117666478,0.7446181542880285 0.11311639974019409,0.7450074008140417 L0.02979778850640959,0.7529564655131163 C0.02571787706993891,0.7533457120391296 0.022197489279684283,0.7512471268029088 0.02059940523939503,0.7474730947962043 L0.0029339749349520943,0.7057544506571208 C0.0010920029839764313,0.7014044534584905 -0.0027987521940376027,0.6987253938397006 -0.007519639512840393,0.6985563991077108 L-0.04244838216817328,0.6973060465563446 C-0.04716926948697608,0.6971370518243549 -0.051241626271611655,0.6995310540204495 -0.053389920705728296,0.7037382106993262 L-0.07399313650345438,0.7440869429648751 C-0.07585698413000784,0.747737047376046 -0.0795184159474784,0.749578543298787 -0.08356005218710978,0.7488985677889664 L-0.16609701992323336,0.735012331277849 C-0.17013865616286478,0.7343323557680284 -0.17299593582111952,0.7313941346834295 -0.17356277510805365,0.7273350851136108 L-0.17982869083257505,0.6824658194991859 C-0.18048203699017434,0.6777873074392866 -0.1835468262480781,0.674192533023428 -0.18806311417714935,0.6728074410994032 L-0.2214780737343539,0.6625594694573873 C-0.22599436166342515,0.6611743775333625 -0.23054756961793468,0.6624328025884467 -0.23371155496854457,0.6659405843657812 L-0.26405575356824174,0.6995819622802893 C-0.26680080866522105,0.7026252931367697 -0.2708140944351964,0.7034563933208456 -0.2745420246473773,0.7017535349824726 L-0.35067259093341135,0.6669783213313052 C-0.3544005211455923,0.6652754629929322 -0.3563999737850149,0.6616978409712307 -0.35589693915793563,0.6576303913585844 L-0.35033632850082497,0.6126682705704738 C-0.3497565244041131,0.6079800765145809 -0.35178648741878416,0.6037145652374488 -0.3557903983992763,0.6012077678470386 L-0.3854144005853607,0.5826605594462024 C-0.3894183115658528,0.5801537620557922 -0.39414207709266846,0.580190850382008 -0.39810613298686054,0.5827602077265583 L-0.43612340740011857,0.6074016269801575 C-0.4395625989990826,0.6096307863134204 -0.44365423992860725,0.6093948526547442 -0.44681441183007353,0.6067851584694726 L-0.5113504043853346,0.5534908410198242 C-0.5145105762868009,0.5508811468345525 -0.5155159425142665,0.5469079329042275 -0.5139773149517052,0.543109273218077 L-0.49696912433990076,0.5011183914845728 C-0.49519568267989705,0.4967400081099885 -0.4960524808265581,0.4920944475160287 -0.49927115494192637,0.4886367787587109 L-0.5230853729638871,0.4630542952008603 C-0.5263040470792554,0.4595966264435425 -0.5308764533641163,0.45840985053274963 -0.5353704359436134,0.4598656859875484 L-0.5784699717456855,0.4738278745799766 C-0.5823689246226977,0.47509094886532 -0.5862600821441809,0.47380405985283197 -0.5886371352422786,0.47046537616666434 L-0.6371805328248956,0.4022838745797048 C-0.6395575859229933,0.3989451908935372 -0.6395003516915464,0.3948471530178937 -0.6370309861191893,0.3915761556382684 L-0.6097342956355216,0.3554181221562959 C-0.6068880735306044,0.3516479290543774 -0.6065133174314863,0.34693890642091646 -0.6087274073598788,0.34276600070843455 L-0.6251089416143755,0.3118916459709841 C-0.627323031542768,0.3077187402585022 -0.6314324766536196,0.30538897692778116 -0.6361501284322865,0.3056320777124658 L-0.6813947634836116,0.30796353556475664 C-0.6854877704434279,0.30817444837696345 -0.6889132686022224,0.3059243033701798 -0.690345210656582,0.3020841559588929 L-0.7195878609430574,0.2236619268925146 C-0.7210198029974171,0.21982177948122766 -0.7199038687253467,0.2158781921691631 -0.7166720483261305,0.2133577701619057 L-0.6809470823171477,0.18549669515928527 C-0.6772220451001627,0.18259162475938964 -0.6756412737641068,0.17814005219687007 -0.6766998929358602,0.17353628615747696 L-0.6845323689352142,0.1394740964935002 C-0.6855909881069676,0.1348703304541071 -0.6889574201506843,0.13155634922433063 -0.693577240956093,0.13057014842216788 L-0.7378836281482183,0.12111199053460399 C-0.741891757530541,0.12025636851407215 -0.7446181542880284,0.11719631117666482 -0.7450074008140416,0.11311639974019415 L-0.7529564655131163,0.02979778850640964 C-0.7533457120391296,0.025717877069938954 -0.7512471268029088,0.022197489279684325 -0.7474730947962043,0.020599405239395067 L-0.7057544506571208,0.002933974934952136 C-0.7014044534584905,0.0010920029839764731 -0.6987253938397006,-0.0027987521940375567 -0.6985563991077108,-0.007519639512840346 L-0.6973060465563446,-0.04244838216817324 C-0.6971370518243549,-0.047169269486976036 -0.6995310540204495,-0.05124162627161163 -0.7037382106993262,-0.05338992070572826 L-0.7440869429648752,-0.07399313650345432 C-0.7477370473760461,-0.07585698413000777 -0.749578543298787,-0.07951841594747834 -0.7488985677889664,-0.08356005218710973 L-0.735012331277849,-0.1660970199232333 C-0.7343323557680284,-0.17013865616286472 -0.7313941346834295,-0.17299593582111947 -0.7273350851136108,-0.1735627751080536 L-0.682465819499186,-0.17982869083257488 C-0.6777873074392867,-0.18048203699017415 -0.6741925330234281,-0.18354682624807792 -0.6728074410994033,-0.18806311417714916 L-0.6625594694573874,-0.2214780737343537 C-0.6611743775333626,-0.22599436166342493 -0.662432802588447,-0.2305475696179345 -0.6659405843657814,-0.23371155496854437 L-0.6995819622802895,-0.2640557535682415 C-0.7026252931367698,-0.2668008086652208 -0.7034563933208458,-0.27081409443519616 -0.7017535349824727,-0.2745420246473771 L-0.6669783213313052,-0.35067259093341135 C-0.6652754629929322,-0.3544005211455923 -0.6616978409712307,-0.3563999737850149 -0.6576303913585844,-0.35589693915793563 L-0.6126682705704739,-0.35033632850082497 C-0.607980076514581,-0.3497565244041131 -0.6037145652374489,-0.35178648741878416 -0.6012077678470387,-0.3557903983992763 L-0.5826605594462024,-0.38541440058536064 C-0.5801537620557922,-0.38941831156585277 -0.580190850382008,-0.39414207709266846 -0.5827602077265583,-0.39810613298686054 L-0.6074016269801574,-0.43612340740011857 C-0.6096307863134203,-0.4395625989990826 -0.6093948526547442,-0.44365423992860725 -0.6067851584694726,-0.44681441183007353 L-0.5534908410198242,-0.5113504043853345 C-0.5508811468345525,-0.5145105762868007 -0.5469079329042275,-0.5155159425142665 -0.543109273218077,-0.5139773149517051 L-0.501118391484573,-0.4969691243399006 C-0.4967400081099887,-0.49519568267989683 -0.4920944475160289,-0.4960524808265579 -0.4886367787587111,-0.4992711549419262 L-0.4630542952008606,-0.523085372963887 C-0.4595966264435428,-0.5263040470792553 -0.45840985053274996,-0.5308764533641162 -0.45986568598754873,-0.5353704359436133 L-0.4738278745799769,-0.5784699717456852 C-0.4750909488653203,-0.5823689246226974 -0.47380405985283225,-0.5862600821441806 -0.4704653761666646,-0.5886371352422782 L-0.4022838745797051,-0.6371805328248954 C-0.39894519089353747,-0.639557585922993 -0.394847153017894,-0.6395003516915462 -0.39157615563826875,-0.6370309861191891 L-0.35541812215629603,-0.6097342956355215 C-0.35164792905437753,-0.6068880735306043 -0.34693890642091657,-0.6065133174314863 -0.34276600070843466,-0.6087274073598788 L-0.31189164597098445,-0.6251089416143754 C-0.30771874025850254,-0.6273230315427679 -0.3053889769277815,-0.6314324766536195 -0.30563207771246614,-0.6361501284322864 L-0.307963535564757,-0.6813947634836115 C-0.3081744483769638,-0.6854877704434278 -0.3059243033701801,-0.6889132686022222 -0.3020841559588932,-0.6903452106565819 L-0.22366192689251493,-0.7195878609430573 C-0.219821779481228,-0.721019802997417 -0.21587819216916346,-0.7199038687253466 -0.21335777016190605,-0.7166720483261304 L-0.18549669515928563,-0.6809470823171477 C-0.18259162475939,-0.6772220451001627 -0.17814005219687043,-0.6756412737641068 -0.17353628615747732,-0.6766998929358602 L-0.13947409649350087,-0.6845323689352141 C-0.13487033045410776,-0.6855909881069675 -0.1315563492243313,-0.6889574201506842 -0.13057014842216855,-0.6935772409560929 L-0.12111199053460468,-0.7378836281482182 C-0.12025636851407286,-0.7418917575305409 -0.11719631117666554,-0.7446181542880282 -0.11311639974019486,-0.7450074008140415 L-0.02979778850641028,-0.7529564655131162 C-0.025717877069939638,-0.7533457120391295 -0.022197489279685033,-0.7512471268029087 -0.02059940523939575,-0.7474730947962043 L-0.002933974934952228,-0.7057544506571207 C-0.0010920029839765317,-0.7014044534584905 0.0027987521940374812,-0.6987253938397006 0.007519639512840232,-0.6985563991077108 L0.042448382168172906,-0.6973060465563448 C0.047169269486975696,-0.697137051824355 0.05124162627161127,-0.6995310540204496 0.0533899207057279,-0.7037382106993263 L0.07399313650345395,-0.7440869429648751 C0.07585698413000741,-0.747737047376046 0.07951841594747797,-0.749578543298787 0.08356005218710935,-0.7488985677889664 L0.16609701992323297,-0.735012331277849 C0.17013865616286436,-0.7343323557680284 0.1729959358211191,-0.7313941346834295 0.17356277510805326,-0.7273350851136108 L0.1798286908325748,-0.682465819499186 C0.1804820369901741,-0.6777873074392867 0.1835468262480779,-0.6741925330234281 0.1880631141771491,-0.6728074410994033 L0.2214780737343534,-0.6625594694573875 C0.22599436166342463,-0.6611743775333627 0.23054756961793418,-0.662432802588447 0.23371155496854407,-0.6659405843657814 L0.2640557535682412,-0.6995819622802895 C0.2668008086652205,-0.7026252931367698 0.2708140944351959,-0.7034563933208458 0.27454202464737676,-0.7017535349824727 L0.350672590933411,-0.6669783213313053 C0.35440052114559195,-0.6652754629929323 0.3563999737850146,-0.6616978409712309 0.3558969391579353,-0.6576303913585845 L0.3503363285008247,-0.612668270570474 C0.3497565244041128,-0.6079800765145811 0.35178648741878393,-0.603714565237449 0.35579039839927606,-0.6012077678470388 L0.38541440058536014,-0.5826605594462029 C0.38941831156585227,-0.5801537620557926 0.3941420770926679,-0.5801908503820086 0.39810613298686,-0.5827602077265588 L0.436123407400118,-0.6074016269801579 C0.43956259899908207,-0.6096307863134207 0.4436542399286067,-0.6093948526547446 0.4468144118300729,-0.6067851584694729 L0.5113504043853341,-0.5534908410198247 C0.5145105762868003,-0.550881146834553 0.515515942514266,-0.5469079329042279 0.5139773149517047,-0.5431092732180776 L0.4969691243399006,-0.5011183914845728 C0.49519568267989694,-0.49674000810998853 0.496052480826558,-0.49209444751602877 0.49927115494192625,-0.48863677875871103 L0.5230853729638869,-0.4630542952008606 C0.5263040470792552,-0.4595966264435428 0.530876453364116,-0.45840985053274996 0.5353704359436132,-0.45986568598754873 L0.5784699717456852,-0.4738278745799769 C0.5823689246226974,-0.4750909488653203 0.5862600821441806,-0.47380405985283225 0.5886371352422782,-0.4704653761666646 L0.6371805328248954,-0.4022838745797051 C0.639557585922993,-0.39894519089353747 0.6395003516915462,-0.394847153017894 0.6370309861191891,-0.39157615563826875 L0.6097342956355215,-0.35541812215629603 C0.6068880735306043,-0.35164792905437753 0.6065133174314863,-0.34693890642091657 0.6087274073598788,-0.34276600070843466 L0.6251089416143754,-0.31189164597098445 C0.6273230315427679,-0.30771874025850254 0.6314324766536195,-0.30538897692778155 0.6361501284322864,-0.3056320777124662 L0.6813947634836115,-0.30796353556475703 C0.6854877704434278,-0.30817444837696384 0.6889132686022222,-0.3059243033701802 0.6903452106565819,-0.30208415595889326 L0.7195878609430573,-0.223661926892515 C0.721019802997417,-0.21982177948122805 0.7199038687253466,-0.2158781921691635 0.7166720483261304,-0.2133577701619061 L0.6809470823171477,-0.18549669515928566 C0.6772220451001627,-0.18259162475939003 0.6756412737641068,-0.17814005219687046 0.6766998929358602,-0.17353628615747735 L0.6845323689352141,-0.1394740964935009 C0.6855909881069675,-0.1348703304541078 0.6889574201506842,-0.13155634922433132 0.6935772409560929,-0.13057014842216857 L0.7378836281482182,-0.12111199053460472 C0.7418917575305409,-0.1202563685140729 0.7446181542880282,-0.11719631117666557 0.7450074008140415,-0.11311639974019488 L0.7529564655131162,-0.029797788506410308 C0.7533457120391295,-0.025717877069939672 0.7512471268029087,-0.022197489279685075 0.7474730947962043,-0.020599405239395782  Z" style="stroke:black;fill:#00AA00;opacity:1.0"></path><circle cx="0" cy="0" r="0.05"></circle></svg>