  0
SECTION
  2
HEADER
  9
$ACADVER
  1
AC1024
  9
$ACADMAINTVER
 70
     6
  9
$DWGCODEPAGE
  3
ANSI_1252
  9
$INSBASE
 10
0.0
 20
0.0
 30
0.0
  9
$EXTMIN
 10
1.000000000000000E+20
 20
1.000000000000000E+20
 30
1.000000000000000E+20
  9
$EXTMAX
 10
-1.000000000000000E+20
 20
-1.000000000000000E+20
 30
-1.000000000000000E+20
  9
$LIMMIN
 10
0.0
 20
0.0
  9
$LIMMAX
 10
12.0
 20
9.0
  9
$ORTHOMODE
 70
     0
  9
$REGENMODE
 70
     1
  9
$FILLMODE
 70
     1
  9
$QTEXTMODE
 70
     0
  9
$MIRRTEXT
 70
     1
  9
$LTSCALE
 40
1.0
  9
$ATTMODE
 70
     1
  9
$TEXTSIZE
 40
0.2
  9
$TRACEWID
 40
0.05
  9
$TEXTSTYLE
  7
Standard
  9
$CLAYER
  8
0
  9
$CELTYPE
  6
ByLayer
  9
$CECOLOR
 62
   256
  9
$CELTSCALE
 40
1.0
  9
$DISPSILH
 70
     0
  9
$DIMSCALE
 40
1.0
  9
$DIMASZ
 40
0.18
  9
$DIMEXO
 40
0.0625
  9
$DIMDLI
 40
0.38
  9
$DIMRND
 40
0.0
  9
$DIMDLE
 40
0.0
  9
$DIMEXE
 40
0.18
  9
$DIMTP
 40
0.0
  9
$DIMTM
 40
0.0
  9
$DIMTXT
 40
0.18
  9
$DIMCEN
 40
0.09
  9
$DIMTSZ
 40
0.0
  9
$DIMTOL
 70
     0
  9
$DIMLIM
 70
     0
  9
$DIMTIH
 70
     1
  9
$DIMTOH
 70
     1
  9
$DIMSE1
 70
     0
  9
$DIMSE2
 70
     0
  9
$DIMTAD
 70
     0
  9
$DIMZIN
 70
     0
  9
$DIMBLK
  1

  9
$DIMASO
 70
     1
  9
$DIMSHO
 70
     1
  9
$DIMPOST
  1

  9
$DIMAPOST
  1

  9
$DIMALT
 70
     0
  9
$DIMALTD
 70
     2
  9
$DIMALTF
 40
25.4
  9
$DIMLFAC
 40
1.0
  9
$DIMTOFL
 70
     0
  9
$DIMTVP
 40
0.0
  9
$DIMTIX
 70
     0
  9
$DIMSOXD
 70
     0
  9
$DIMSAH
 70
     0
  9
$DIMBLK1
  1

  9
$DIMBLK2
  1

  9
$DIMSTYLE
  2
Standard
  9
$DIMCLRD
 70
     0
  9
$DIMCLRE
 70
     0
  9
$DIMCLRT
 70
     0
  9
$DIMTFAC
 40
1.0
  9
$DIMGAP
 40
0.09
  9
$DIMJUST
 70
     0
  9
$DIMSD1
 70
     0
  9
$DIMSD2
 70
     0
  9
$DIMTOLJ
 70
     1
  9
$DIMTZIN
 70
     0
  9
$DIMALTZ
 70
     0
  9
$DIMALTTZ
 70
     0
  9
$DIMUPT
 70
     0
  9
$DIMDEC
 70
     4
  9
$DIMTDEC
 70
     4
  9
$DIMALTU
 70
     2
  9
$DIMALTTD
 70
     2
  9
$DIMTXSTY
  7
Standard
  9
$DIMAUNIT
 70
     0
  9
$DIMADEC
 70
     0
  9
$DIMALTRND
 40
0.0
  9
$DIMAZIN
 70
     0
  9
$DIMDSEP
 70
    46
  9
$DIMATFIT
 70
     3
  9
$DIMFRAC
 70
     0
  9
$DIMLDRBLK
  1

  9
$DIMLUNIT
 70
     2
  9
$DIMLWD
 70
    -2
  9
$DIMLWE
 70
    -2
  9
$DIMTMOVE
 70
     0
  9
$DIMFXL
 40
1.0
  9
$DIMFXLON
 70
     0
  9
$DIMJOGANG
 40
0.7853981633974483
  9
$DIMTFILL
 70
     0
  9
$DIMTFILLCLR
 70
     0
  9
$DIMARCSYM
 70
     0
  9
$DIMLTYPE
  6

  9
$DIMLTEX1
  6

  9
$DIMLTEX2
  6

  9
$DIMTXTDIRECTION
 70
     0
  9
$LUNITS
 70
     2
  9
$LUPREC
 70
     4
  9
$SKETCHINC
 40
0.1
  9
$FILLETRAD
 40
0.5
  9
$AUNITS
 70
     0
  9
$AUPREC
 70
     0
  9
$MENU
  1
.
  9
$ELEVATION
 40
0.0
  9
$PELEVATION
 40
0.0
  9
$THICKNESS
 40
0.0
  9
$LIMCHECK
 70
     0
  9
$CHAMFERA
 40
0.5
  9
$CHAMFERB
 40
0.5
  9
$CHAMFERC
 40
1.0
  9
$CHAMFERD
 40
0.0
  9
$SKPOLY
 70
     0
  9
$TDCREATE
 40
2458163.648242489
  9
$TDUCREATE
 40
2458163.898242489
  9
$TDUPDATE
 40
2458163.648242558
  9
$TDUUPDATE
 40
2458163.898242558
  9
$TDINDWG
 40
0.0000000116
  9
$TDUSRTIMER
 40
0.0000000116
  9
$USRTIMER
 70
     1
  9
$ANGBASE
 50
0.0
  9
$ANGDIR
 70
     0
  9
$PDMODE
 70
     0
  9
$PDSIZE
 40
0.0
  9
$PLINEWID
 40
0.0
  9
$SPLFRAME
 70
     0
  9
$SPLINETYPE
 70
     6
  9
$SPLINESEGS
 70
     8
  9
$HANDSEED
  5
46
  9
$SURFTAB1
 70
     6
  9
$SURFTAB2
 70
     6
  9
$SURFTYPE
 70
     6
  9
$SURFU
 70
     6
  9
$SURFV
 70
     6
  9
$UCSBASE
  2

  9
$UCSNAME
  2

  9
$UCSORG
 10
0.0
 20
0.0
 30
0.0
  9
$UCSXDIR
 10
1.0
 20
0.0
 30
0.0
  9
$UCSYDIR
 10
0.0
 20
1.0
 30
0.0
  9
$UCSORTHOREF
  2

  9
$UCSORTHOVIEW
 70
     0
  9
$UCSORGTOP
 10
0.0
 20
0.0
 30
0.0
  9
$UCSORGBOTTOM
 10
0.0
 20
0.0
 30
0.0
  9
$UCSORGLEFT
 10
0.0
 20
0.0
 30
0.0
  9
$UCSORGRIGHT
 10
0.0
 20
0.0
 30
0.0
  9
$UCSORGFRONT
 10
0.0
 20
0.0
 30
0.0
  9
$UCSORGBACK
 10
0.0
 20
0.0
 30
0.0
  9
$PUCSBASE
  2

  9
$PUCSNAME
  2

  9
$PUCSORG
 10
0.0
 20
0.0
 30
0.0
  9
$PUCSXDIR
 10
1.0
 20
0.0
 30
0.0
  9
$PUCSYDIR
 10
0.0
 20
1.0
 30
0.0
  9
$PUCSORTHOREF
  2

  9
$PUCSORTHOVIEW
 70
     0
  9
$PUCSORGTOP
 10
0.0
 20
0.0
 30
0.0
  9
$PUCSORGBOTTOM
 10
0.0
 20
0.0
 30
0.0
  9
$PUCSORGLEFT
 10
0.0
 20
0.0
 30
0.0
  9
$PUCSORGRIGHT
 10
0.0
 20
0.0
 30
0.0
  9
$PUCSORGFRONT
 10
0.0
 20
0.0
 30
0.0
  9
$PUCSORGBACK
 10
0.0
 20
0.0
 30
0.0
  9
$USERI1
 70
     0
  9
$USERI2
 70
     0
  9
$USERI3
 70
     0
  9
$USERI4
 70
     0
  9
$USERI5
 70
     0
  9
$USERR1
 40
0.0
  9
$USERR2
 40
0.0
  9
$USERR3
 40
0.0
  9
$USERR4
 40
0.0
  9
$USERR5
 40
0.0
  9
$WORLDVIEW
 70
     1
  9
$SHADEDGE
 70
     3
  9
$SHADEDIF
 70
    70
  9
$TILEMODE
 70
     1
  9
$MAXACTVP
 70
    64
  9
$PINSBASE
 10
0.0
 20
0.0
 30
0.0
  9
$PLIMCHECK
 70
     0
  9
$PEXTMIN
 10
1.000000000000000E+20
 20
1.000000000000000E+20
 30
1.000000000000000E+20
  9
$PEXTMAX
 10
-1.000000000000000E+20
 20
-1.000000000000000E+20
 30
-1.000000000000000E+20
  9
$PLIMMIN
 10
0.0
 20
0.0
  9
$PLIMMAX
 10
12.0
 20
9.0
  9
$UNITMODE
 70
     0
  9
$VISRETAIN
 70
     1
  9
$PLINEGEN
 70
     0
  9
$PSLTSCALE
 70
     1
  9
$TREEDEPTH
 70
  3020
  9
$CMLSTYLE
  2
Standard
  9
$CMLJUST
 70
     0
  9
$CMLSCALE
 40
1.0
  9
$PROXYGRAPHICS
 70
     1
  9
$MEASUREMENT
 70
     0
  9
$CELWEIGHT
370
    -1
  9
$ENDCAPS
280
     0
  9
$JOINSTYLE
280
     0
  9
$LWDISPLAY
290
     1
  9
$INSUNITS
 70
     1
  9
$HYPERLINKBASE
  1

  9
$STYLESHEET
  1

  9
$XEDIT
290
     1
  9
$CEPSNTYPE
380
     0
  9
$PSTYLEMODE
290
     1
  9
$FINGERPRINTGUID
  2
{D80DE4E7-9080-4348-A253-D9D2B9C9D828}
  9
$VERSIONGUID
  2
{FAEB1C32-E019-11D5-929B-00C0DF256EC4}
  9
$EXTNAMES
290
     1
  9
$PSVPSCALE
 40
0.0
  9
$OLESTARTUP
290
     0
  9
$SORTENTS
280
   127
  9
$INDEXCTL
280
     0
  9
$HIDETEXT
280
     1
  9
$XCLIPFRAME
280
     2
  9
$HALOGAP
280
     0
  9
$OBSCOLOR
 70
   257
  9
$OBSLTYPE
280
     0
  9
$INTERSECTIONDISPLAY
280
     0
  9
$INTERSECTIONCOLOR
 70
   257
  9
$DIMASSOC
280
     2
  9
$PROJECTNAME
  1

  9
$CAMERADISPLAY
290
     0
  9
$LENSLENGTH
 40
50.0
  9
$CAMERAHEIGHT
 40
0.0
  9
$STEPSPERSEC
 40
2.0
  9
$STEPSIZE
 40
6.0
  9
$3DDWFPREC
 40
2.0
  9
$PSOLWIDTH
 40
0.25
  9
$PSOLHEIGHT
 40
4.0
  9
$LOFTANG1
 40
1.570796326794897
  9
$LOFTANG2
 40
1.570796326794897
  9
$LOFTMAG1
 40
0.0
  9
$LOFTMAG2
 40
0.0
  9
$LOFTPARAM
 70
     7
  9
$LOFTNORMALS
280
     1
  9
$LATITUDE
 40
37.795
  9
$LONGITUDE
 40
-122.394
  9
$NORTHDIRECTION
 40
0.0
  9
$TIMEZONE
 70
 -8000
  9
$LIGHTGLYPHDISPLAY
280
     1
  9
$TILEMODELIGHTSYNCH
280
     1
  9
$CMATERIAL
347
3C
  9
$SOLIDHIST
280
     1
  9
$SHOWHIST
280
     1
  9
$DWFFRAME
280
     2
  9
$DGNFRAME
280
     2
  9
$REALWORLDSCALE
290
     1
  9
$INTERFERECOLOR
 62
   256
  9
$CSHADOW
280
     0
  9
$SHADOWPLANELOCATION
 40
0.0
  0
ENDSEC
  0
SECTION
  2
CLASSES
  0
CLASS
  1
ACDBDICTIONARYWDFLT
  2
AcDbDictionaryWithDefault
  3
ObjectDBX Classes
 90
        0
 91
        4
280
     0
281
     0
  0
CLASS
  1
VISUALSTYLE
  2
AcDbVisualStyle
  3
ObjectDBX Classes
 90
     4095
 91
        4
280
     0
281
     0
  0
CLASS
  1
MATERIAL
  2
AcDbMaterial
  3
ObjectDBX Classes
 90
     1153
 91
        4
280
     0
281
     0
  0
CLASS
  1
SUN
  2
AcDbSun
  3
SCENEOE
 90
     1024
 91
        4
280
     0
281
     0
  0
ENDSEC
  0
SECTION
  2
TABLES
  0
TABLE
  2
VPORT
  5
8
330
0
100
AcDbSymbolTable
 70
     1
  0
VPORT
  5
29
330
8
100
AcDbSymbolTableRecord
100
AcDbViewportTableRecord
  2
*Active
 70
     0
 10
0.0
 20
0.0
 11
1.0
 21
1.0
 12
0.0
 22
0.0
 13
0.0
 23
0.0
 14
0.5
 24
0.5
 15
0.5
 25
0.5
 16
0.0
 26
0.0
 36
1.0
 17
4.25
 27
-5.5
 37
0.0
 40
11.0
 41
0.7727272727272727
 42
50.0
 43
0.0
 44
0.0
 50
0.0
 51
0.0
 71
     0
 72
   100
 73
     1
 74
     3
 75
     0
 76
     0
 77
     0
 78
     0
281
     0
 65
     1
110
0.0
120
0.0
130
0.0
111
1.0
121
0.0
131
0.0
112
0.0
122
1.0
132
0.0
 79
     0
146
0.0
 60
     3
 61
     5
292
     1
282
     1
141
0.0
142
0.0
 63
   250
361
3F
  0
ENDTAB
  0
TABLE
  2
LTYPE
  5
5
330
0
100
AcDbSymbolTable
 70
     1
  0
LTYPE
  5
14
330
5
100
AcDbSymbolTableRecord
100
AcDbLinetypeTableRecord
  2
ByBlock
 70
     0
  3

 72
    65
 73
     0
 40
0.0
  0
LTYPE
  5
15
330
5
100
AcDbSymbolTableRecord
100
AcDbLinetypeTableRecord
  2
ByLayer
 70
     0
  3

 72
    65
 73
     0
 40
0.0
  0
LTYPE
  5
16
330
5
100
AcDbSymbolTableRecord
100
AcDbLinetypeTableRecord
  2
Continuous
 70
     0
  3
Solid line
 72
    65
 73
     0
 40
0.0
  0
ENDTAB
  0
TABLE
  2
LAYER
  5
2
330
0
100
AcDbSymbolTable
 70
     2
  0
LAYER
  5
10
330
2
100
AcDbSymbolTableRecord
100
AcDbLayerTableRecord
  2
0
 70
     0
 62
     7
  6
Continuous
370
    -3
390
F
347
3E
  0
LAYER
  5
40
330
2
100
AcDbSymbolTableRecord
100
AcDbLayerTableRecord
  2
Layer 1
 70
     0
 62
     7
  6
Continuous
370
    -3
390
F
347
3E
  0
ENDTAB
  0
TABLE
  2
STYLE
  5
3
330
0
100
AcDbSymbolTable
 70
     1
  0
STYLE
  5
11
330
3
100
AcDbSymbolTableRecord
100
AcDbTextStyleTableRecord
  2
Standard
 70
     0
 40
0.0
 41
1.0
 50
0.0
 71
     0
 42
0.2
  3
txt
  4

  0
ENDTAB
  0
TABLE
  2
VIEW
  5
6
330
0
100
AcDbSymbolTable
 70
     0
  0
ENDTAB
  0
TABLE
  2
UCS
  5
7
330
0
100
AcDbSymbolTable
 70
     0
  0
ENDTAB
  0
TABLE
  2
APPID
  5
9
330
0
100
AcDbSymbolTable
 70
     1
  0
APPID
  5
12
330
9
100
AcDbSymbolTableRecord
100
AcDbRegAppTableRecord
  2
ACAD
 70
     0
  0
ENDTAB
  0
TABLE
  2
DIMSTYLE
  5
A
330
0
100
AcDbSymbolTable
 70
     1
100
AcDbDimStyleTable
  0
DIMSTYLE
105
27
330
A
100
AcDbSymbolTableRecord
100
AcDbDimStyleTableRecord
  2
Standard
 70
     0
178
     0
340
11
  0
ENDTAB
  0
TABLE
  2
BLOCK_RECORD
  5
1
330
0
100
AcDbSymbolTable
 70
     1
  0
BLOCK_RECORD
  5
1F
330
1
100
AcDbSymbolTableRecord
100
AcDbBlockTableRecord
  2
*Model_Space
340
22
 70
     0
280
     1
281
     0
  0
BLOCK_RECORD
  5
1B
330
1
100
AcDbSymbolTableRecord
100
AcDbBlockTableRecord
  2
*Paper_Space
340
1E
 70
     0
280
     1
281
     0
  0
BLOCK_RECORD
  5
23
330
1
100
AcDbSymbolTableRecord
100
AcDbBlockTableRecord
  2
*Paper_Space0
340
26
 70
     0
280
     1
281
     0
  0
ENDTAB
  0
ENDSEC
  0
SECTION
  2
BLOCKS
  0
BLOCK
  5
20
330
1F
100
AcDbEntity
  8
0
100
AcDbBlockBegin
  2
*Model_Space
 70
     0
 10
0.0
 20
0.0
 30
0.0
  3
*Model_Space
  1

  0
ENDBLK
  5
21
330
1F
100
AcDbEntity
  8
0
100
AcDbBlockEnd
  0
BLOCK
  5
1C
330
1B
100
AcDbEntity
 67
     1
  8
0
100
AcDbBlockBegin
  2
*Paper_Space
 70
     0
 10
0.0
 20
0.0
 30
0.0
  3
*Paper_Space
  1

  0
ENDBLK
  5
1D
330
1B
100
AcDbEntity
 67
     1
  8
0
100
AcDbBlockEnd
  0
BLOCK
  5
24
330
23
100
AcDbEntity
  8
0
100
AcDbBlockBegin
  2
*Paper_Space0
 70
     0
 10
0.0
 20
0.0
 30
0.0
  3
*Paper_Space0
  1

  0
ENDBLK
  5
25
330
23
100
AcDbEntity
  8
0
100
AcDbBlockEnd
  0
ENDSEC
  0
SECTION
  2
ENTITIES
  0
SPLINE
  5
41
330
1F
100
AcDbEntity
  8
Layer 1
370
     0
100
AcDbSpline
210
0.0
220
0.0
230
1.0
 70
    11
 71
     3
 72
    17
 73
    13
 74
     0
 42
0.0000000001
 43
0.0000000001
 12
1.0
 22
0.0
 32
0.0
 13
1.0
 23
0.0
 33
0.0
 40
0.0
 40
0.0
 40
0.0
 40
0.0
 40
1.0
 40
1.0
 40
1.0
 40
2.0
 40
2.0
 40
2.0
 40
3.0
 40
3.0
 40
3.0
 40
4.0
 40
4.0
 40
4.0
 40
4.0
 10
0.574999999999995
 20
0.0
 30
0.0
 10
0.574999999999995
 20
-0.3175637311349975
 30
0.0
 10
0.3175637311350227
 20
-0.574999999999995
 30
0.0
 10
0.0
 20
-0.574999999999995
 30
0.0
 10
-0.3175637311349849
 20
-0.574999999999995
 30
0.0
 10
-0.574999999999995
 20
-0.3175637311349975
 30
0.0
 10
-0.574999999999995
 20
0.0
 30
0.0
 10
-0.574999999999995
 20
0.3175637311349975
 30
0.0
 10
-0.3175637311349849
 20
0.574999999999995
 30
0.0
 10
0.0
 20
0.574999999999995
 30
0.0
 10
0.3175637311350227
 20
0.574999999999995
 30
0.0
 10
0.574999999999995
 20
0.3175637311349975
 30
0.0
 10
0.574999999999995
 20
0.0
 30
0.0
  0
SPLINE
  5
42
330
1F
100
AcDbEntity
  8
Layer 1
370
     0
100
AcDbSpline
210
0.0
220
0.0
230
1.0
 70
    11
 71
     3
 72
   389
 73
   385
 74
     0
 42
0.0000000001
 43
0.0000000001
 12
1.0
 22
0.0
 32
0.0
 13
1.0
 23
0.0
 33
0.0
 40
0.0
 40
0.0
 40
0.0
 40
0.0
 40
1.0
 40
1.0
 40
1.0
 40
2.0
 40
2.0
 40
2.0
 40
3.0
 40
3.0
 40
3.0
 40
4.0
 40
4.0
 40
4.0
 40
5.0
 40
5.0
 40
5.0
 40
6.0
 40
6.0
 40
6.0
 40
7.0
 40
7.0
 40
7.0
 40
8.0
 40
8.0
 40
8.0
 40
9.0
 40
9.0
 40
9.0
 40
10.0
 40
10.0
 40
10.0
 40
11.0
 40
11.0
 40
11.0
 40
12.0
 40
12.0
 40
12.0
 40
13.0
 40
13.0
 40
13.0
 40
14.0
 40
14.0
 40
14.0
 40
15.0
 40
15.0
 40
15.0
 40
16.0
 40
16.0
 40
16.0
 40
17.0
 40
17.0
 40
17.0
 40
18.0
 40
18.0
 40
18.0
 40
19.0
 40
19.0
 40
19.0
 40
20.0
 40
20.0
 40
20.0
 40
21.0
 40
21.0
 40
21.0
 40
22.0
 40
22.0
 40
22.0
 40
23.0
 40
23.0
 40
23.0
 40
24.0
 40
24.0
 40
24.0
 40
25.0
 40
25.0
 40
25.0
 40
26.0
 40
26.0
 40
26.0
 40
27.0
 40
27.0
 40
27.0
 40
28.0
 40
28.0
 40
28.0
 40
29.0
 40
29.0
 40
29.0
 40
30.0
 40
30.0
 40
30.0
 40
31.0
 40
31.0
 40
31.0
 40
32.0
 40
32.0
 40
32.0
 40
33.0
 40
33.0
 40
33.0
 40
34.0
 40
34.0
 40
34.0
 40
35.0
 40
35.0
 40
35.0
 40
36.0
 40
36.0
 40
36.0
 40
37.0
 40
37.0
 40
37.0
 40
38.0
 40
38.0
 40
38.0
 40
39.0
 40
39.0
 40
39.0
 40
40.0
 40
40.0
 40
40.0
 40
41.0
 40
41.0
 40
41.0
 40
42.0
 40
42.0
 40
42.0
 40
43.0
 40
43.0
 40
43.0
 40
44.0
 40
44.0
 40
44.0
 40
45.0
 40
45.0
 40
45.0
 40
46.0
 40
46.0
 40
46.0
 40
47.0
 40
47.0
 40
47.0
 40
48.0
 40
48.0
 40
48.0
 40
49.0
 40
49.0
 40
49.0
 40
50.0
 40
50.0
 40
50.0
 40
51.0
 40
51.0
 40
51.0
 40
52.0
 40
52.0
 40
52.0
 40
53.0
 40
53.0
 40
53.0
 40
54.0
 40
54.0
 40
54.0
 40
55.0
 40
55.0
 40
55.0
 40
56.0
 40
56.0
 40
56.0
 40
57.0
 40
57.0
 40
57.0
 40
58.0
 40
58.0
 40
58.0
 40
59.0
 40
59.0
 40
59.0
 40
60.0
 40
60.0
 40
60.0
 40
61.0
 40
61.0
 40
61.0
 40
62.0
 40
62.0
 40
62.0
 40
63.0
 40
63.0
 40
63.0
 40
64.0
 40
64.0
 40
64.0
 40
65.0
 40
65.0
 40
65.0
 40
66.0
 40
66.0
 40
66.0
 40
67.0
 40
67.0
 40
67.0
 40
68.0
 40
68.0
 40
68.0
 40
69.0
 40
69.0
 40
69.0
 40
70.0
 40
70.0
 40
70.0
 40
71.0
 40
71.0
 40
71.0
 40
72.0
 40
72.0
 40
72.0
 40
73.0
 40
73.0
 40
73.0
 40
74.0
 40
74.0
 40
74.0
 40
75.0
 40
75.0
 40
75.0
 40
76.0
 40
76.0
 40
76.0
 40
77.0
 40
77.0
 40
77.0
 40
78.0
 40
78.0
 40
78.0
 40
79.0
 40
79.0
 40
79.0
 40
80.0
 40
80.0
 40
80.0
 40
81.0
 40
81.0
 40
81.0
 40
82.0
 40
82.0
 40
82.0
 40
83.0
 40
83.0
 40
83.0
 40
84.0
 40
84.0
 40
84.0
 40
85.0
 40
85.0
 40
85.0
 40
86.0
 40
86.0
 40
86.0
 40
87.0
 40
87.0
 40
87.0
 40
88.0
 40
88.0
 40
88.0
 40
89.0
 40
89.0
 40
89.0
 40
90.0
 40
90.0
 40
90.0
 40
91.0
 40
91.0
 40
91.0
 40
92.0
 40
92.0
 40
92.0
 40
93.0
 40
93.0
 40
93.0
 40
94.0
 40
94.0
 40
94.0
 40
95.0
 40
95.0
 40
95.0
 40
96.0
 40
96.0
 40
96.0
 40
97.0
 40
97.0
 40
97.0
 40
98.0
 40
98.0
 40
98.0
 40
99.0
 40
99.0
 40
99.0
 40
100.0
 40
100.0
 40
100.0
 40
101.0
 40
101.0
 40
101.0
 40
102.0
 40
102.0
 40
102.0
 40
103.0
 40
103.0
 40
103.0
 40
104.0
 40
104.0
 40
104.0
 40
105.0
 40
105.0
 40
105.0
 40
106.0
 40
106.0
 40
106.0
 40
107.0
 40
107.0
 40
107.0
 40
108.0
 40
108.0
 40
108.0
 40
109.0
 40
109.0
 40
109.0
 40
110.0
 40
110.0
 40
110.0
 40
111.0
 40
111.0
 40
111.0
 40
112.0
 40
112.0
 40
112.0
 40
113.0
 40
113.0
 40
113.0
 40
114.0
 40
114.0
 40
114.0
 40
115.0
 40
115.0
 40
115.0
 40
116.0
 40
116.0
 40
116.0
 40
117.0
 40
117.0
 40
117.0
 40
118.0
 40
118.0
 40
118.0
 40
119.0
 40
119.0
 40
119.0
 40
120.0
 40
120.0
 40
120.0
 40
121.0
 40
121.0
 40
121.0
 40
122.0
 40
122.0
 40
122.0
 40
123.0
 40
123.0
 40
123.0
 40
124.0
 40
124.0
 40
124.0
 40
125.0
 40
125.0
 40
125.0
 40
126.0
 40
126.0
 40
126.0
 40
127.0
 40
127.0
 40
127.0
 40
128.0
 40
128.0
 40
128.0
 40
128.0
 10
0.4511653184890747
 20
0.0027911057695873
 30
0.0
 10
0.446778416633606
 20
0.0010388281662143
 30
0.0
 10
0.4440200328826904
 20
-0.0027961053419732
 30
0.0
 10
0.4437541663646698
 20
-0.0075125284492843
 30
0.0
 10
0.4437541663646698
 20
-0.0075125284492843
 30
0.0
 10
0.4417869746685028
 20
-0.0424082390964031
 30
0.0
 10
0.4417869746685028
 20
-0.0424082390964031
 30
0.0
 10
0.4415211081504822
 20
-0.0471246615052223
 30
0.0
 10
0.4438309967517853
 20
-0.0512453094124794
 30
0.0
 10
0.4479931592941284
 20
-0.0534795261919498
 30
0.0
 10
0.4479931592941284
 20
-0.0534795261919498
 30
0.0
 10
0.4869438111782074
 20
-0.074387900531292
 30
0.0
 10
0.4869438111782074
 20
-0.074387900531292
 30
0.0
 10
0.4907720386981964
 20
-0.0764428675174713
 30
0.0
 10
0.4925148785114288
 20
-0.0804229006171227
 30
0.0
 10
0.4914287328720093
 20
-0.0846298635005951
 30
0.0
 10
0.4914287328720093
 20
-0.0846298635005951
 30
0.0
 10
0.4709770083427429
 20
-0.1638446301221848
 30
0.0
 10
0.4709770083427429
 20
-0.1638446301221848
 30
0.0
 10
0.4698908627033234
 20
-0.1680515855550766
 30
0.0
 10
0.4664391279220581
 20
-0.1706904917955399
 30
0.0
 10
0.4620945751667023
 20
-0.1706354022026062
 30
0.0
 10
0.4620945751667023
 20
-0.1706354022026062
 30
0.0
 10
0.4178905189037323
 20
-0.170074850320816
 30
0.0
 10
0.4178905189037323
 20
-0.170074850320816
 30
0.0
 10
0.4131669700145721
 20
-0.1700149476528168
 30
0.0
 10
0.409151017665863
 20
-0.1725023835897446
 30
0.0
 10
0.4071004688739777
 20
-0.1767580360174179
 30
0.0
 10
0.4071004688739777
 20
-0.1767580360174179
 30
0.0
 10
0.391929030418396
 20
-0.2082446664571762
 30
0.0
 10
0.391929030418396
 20
-0.2082446664571762
 30
0.0
 10
0.3898784816265106
 20
-0.2125003188848495
 30
0.0
 10
0.3904356360435486
 20
-0.2171912640333176
 30
0.0
 10
0.3934259712696075
 20
-0.2208482027053833
 30
0.0
 10
0.3934259712696075
 20
-0.2208482027053833
 30
0.0
 10
0.4214103817939758
 20
-0.2550707757472992
 30
0.0
 10
0.4214103817939758
 20
-0.2550707757472992
 30
0.0
 10
0.4241608083248138
 20
-0.2584343254566193
 30
0.0
 10
0.4242478907108307
 20
-0.2627783715724945
 30
0.0
 10
0.4216344952583313
 20
-0.266249418258667
 30
0.0
 10
0.4216344952583313
 20
-0.266249418258667
 30
0.0
 10
0.372425377368927
 20
-0.3316077888011932
 30
0.0
 10
0.372425377368927
 20
-0.3316077888011932
 30
0.0
 10
0.3698119819164276
 20
-0.3350788652896881
 30
0.0
 10
0.3656131327152252
 20
-0.3361959755420685
 30
0.0
 10
0.3616203665733337
 20
-0.3344824910163879
 30
0.0
 10
0.3616203665733337
 20
-0.3344824910163879
 30
0.0
 10
0.3209956586360931
 20
-0.3170484304428101
 30
0.0
 10
0.3209956586360931
 20
-0.3170484304428101
 30
0.0
 10
0.3166546225547791
 20
-0.3151854872703552
 30
0.0
 10
0.3119924366474152
 20
-0.3159467279911041
 30
0.0
 10
0.3084694147109985
 20
-0.3190937340259552
 30
0.0
 10
0.3084694147109985
 20
-0.3190937340259552
 30
0.0
 10
0.2824034094810486
 20
-0.3423777222633362
 30
0.0
 10
0.2824034094810486
 20
-0.3423777222633362
 30
0.0
 10
0.278880387544632
 20
-0.3455247282981873
 30
0.0
 10
0.2775999903678894
 20
-0.3500718176364899
 30
0.0
 10
0.2789632678031921
 20
-0.3545947372913361
 30
0.0
 10
0.2789632678031921
 20
-0.3545947372913361
 30
0.0
 10
0.2917210757732391
 20
-0.3969214558601379
 30
0.0
 10
0.2917210757732391
 20
-0.3969214558601379
 30
0.0
 10
0.292974978685379
 20
-0.4010815024375916
 30
0.0
 10
0.2913930416107178
 20
-0.4051281809806824
 30
0.0
 10
0.2876502275466919
 20
-0.4073349237442017
 30
0.0
 10
0.2876502275466919
 20
-0.4073349237442017
 30
0.0
 10
0.2171753793954849
 20
-0.4488866925239563
 30
0.0
 10
0.2171753793954849
 20
-0.4488866925239563
 30
0.0
 10
0.2134325951337814
 20
-0.4510934352874756
 30
0.0
 10
0.2091258615255356
 20
-0.4505186676979065
 30
0.0
 10
0.2060927599668503
 20
-0.4474076628684998
 30
0.0
 10
0.2060927599668503
 20
-0.4474076628684998
 30
0.0
 10
0.1752321422100067
 20
-0.4157542884349823
 30
0.0
 10
0.1752321422100067
 20
-0.4157542884349823
 30
0.0
 10
0.1719344556331635
 20
-0.4123719036579132
 30
0.0
 10
0.1673358529806137
 20
-0.4112910628318787
 30
0.0
 10
0.162876695394516
 20
-0.4128503203392029
 30
0.0
 10
0.162876695394516
 20
-0.4128503203392029
 30
0.0
 10
0.1298844516277313
 20
-0.4243868887424469
 30
0.0
 10
0.1298844516277313
 20
-0.4243868887424469
 30
0.0
 10
0.1254252940416336
 20
-0.4259461462497711
 30
0.0
 10
0.1225022748112679
 20
-0.4296571016311646
 30
0.0
 10
0.1220309212803841
 20
-0.4343574345111847
 30
0.0
 10
0.1220309212803841
 20
-0.4343574345111847
 30
0.0
 10
0.1176198646426201
 20
-0.4783444404602051
 30
0.0
 10
0.1176198646426201
 20
-0.4783444404602051
 30
0.0
 10
0.1171863302588463
 20
-0.4826676547527313
 30
0.0
 10
0.1141762137413025
 20
-0.4858009219169617
 30
0.0
 10
0.1098738387227058
 20
-0.4864073991775513
 30
0.0
 10
0.1098738387227058
 20
-0.4864073991775513
 30
0.0
 10
0.0288623943924904
 20
-0.4978266358375549
 30
0.0
 10
0.0288623943924904
 20
-0.4978266358375549
 30
0.0
 10
0.0245600175112486
 20
-0.4984331130981445
 30
0.0
 10
0.0208010729402304
 20
-0.4962539970874786
 30
0.0
 10
0.0191893819719553
 20
-0.4922190606594086
 30
0.0
 10
0.0191893819719553
 20
-0.4922190606594086
 30
0.0
 10
0.0027911057695746
 20
-0.4511653184890747
 30
0.0
 10
0.0027911057695746
 20
-0.4511653184890747
 30
0.0
 10
0.0010388281662017
 20
-0.446778416633606
 30
0.0
 10
-0.0027961053419858
 20
-0.4440200328826904
 30
0.0
 10
-0.007512528449297
 20
-0.4437541663646698
 30
0.0
 10
-0.007512528449297
 20
-0.4437541663646698
 30
0.0
 10
-0.0424082390964031
 20
-0.4417869746685028
 30
0.0
 10
-0.0424082390964031
 20
-0.4417869746685028
 30
0.0
 10
-0.0471246615052223
 20
-0.4415211081504822
 30
0.0
 10
-0.0512453094124794
 20
-0.4438309967517853
 30
0.0
 10
-0.0534795261919498
 20
-0.4479931592941284
 30
0.0
 10
-0.0534795261919498
 20
-0.4479931592941284
 30
0.0
 10
-0.074387900531292
 20
-0.4869438111782074
 30
0.0
 10
-0.074387900531292
 20
-0.4869438111782074
 30
0.0
 10
-0.0764428675174713
 20
-0.4907720386981964
 30
0.0
 10
-0.0804229006171227
 20
-0.4925148785114288
 30
0.0
 10
-0.0846298635005951
 20
-0.4914287328720093
 30
0.0
 10
-0.0846298635005951
 20
-0.4914287328720093
 30
0.0
 10
-0.1638446301221848
 20
-0.4709770083427429
 30
0.0
 10
-0.1638446301221848
 20
-0.4709770083427429
 30
0.0
 10
-0.1680515855550766
 20
-0.4698908627033234
 30
0.0
 10
-0.1706904917955399
 20
-0.4664391279220581
 30
0.0
 10
-0.1706354022026062
 20
-0.4620945751667023
 30
0.0
 10
-0.1706354022026062
 20
-0.4620945751667023
 30
0.0
 10
-0.170074850320816
 20
-0.4178905189037323
 30
0.0
 10
-0.170074850320816
 20
-0.4178905189037323
 30
0.0
 10
-0.1700149476528168
 20
-0.4131669700145721
 30
0.0
 10
-0.1725023835897446
 20
-0.409151017665863
 30
0.0
 10
-0.1767580360174179
 20
-0.4071004688739777
 30
0.0
 10
-0.1767580360174179
 20
-0.4071004688739777
 30
0.0
 10
-0.2082446664571762
 20
-0.391929030418396
 30
0.0
 10
-0.2082446664571762
 20
-0.391929030418396
 30
0.0
 10
-0.2125003188848495
 20
-0.3898784816265106
 30
0.0
 10
-0.2171912640333176
 20
-0.3904356360435486
 30
0.0
 10
-0.2208482027053833
 20
-0.3934259712696075
 30
0.0
 10
-0.2208482027053833
 20
-0.3934259712696075
 30
0.0
 10
-0.2550707757472739
 20
-0.4214103817939758
 30
0.0
 10
-0.2550707757472739
 20
-0.4214103817939758
 30
0.0
 10
-0.258434325456594
 20
-0.4241608083248138
 30
0.0
 10
-0.2627783715724692
 20
-0.4242478907108307
 30
0.0
 10
-0.2662494182586417
 20
-0.4216344952583313
 30
0.0
 10
-0.2662494182586417
 20
-0.4216344952583313
 30
0.0
 10
-0.331607788801168
 20
-0.372425377368927
 30
0.0
 10
-0.331607788801168
 20
-0.372425377368927
 30
0.0
 10
-0.3350788652896629
 20
-0.3698119819164276
 30
0.0
 10
-0.3361959755420432
 20
-0.3656131327152252
 30
0.0
 10
-0.3344824910163627
 20
-0.3616203665733337
 30
0.0
 10
-0.3344824910163627
 20
-0.3616203665733337
 30
0.0
 10
-0.3170484304427848
 20
-0.3209956586360931
 30
0.0
 10
-0.3170484304427848
 20
-0.3209956586360931
 30
0.0
 10
-0.31518548727033
 20
-0.3166546225547791
 30
0.0
 10
-0.3159467279910789
 20
-0.3119924366474152
 30
0.0
 10
-0.3190937340259299
 20
-0.3084694147109985
 30
0.0
 10
-0.3190937340259299
 20
-0.3084694147109985
 30
0.0
 10
-0.3423777222633109
 20
-0.2824034094810486
 30
0.0
 10
-0.3423777222633109
 20
-0.2824034094810486
 30
0.0
 10
-0.345524728298162
 20
-0.278880387544632
 30
0.0
 10
-0.3500718176364646
 20
-0.2775999903678894
 30
0.0
 10
-0.3545947372913108
 20
-0.2789632678031921
 30
0.0
 10
-0.3545947372913108
 20
-0.2789632678031921
 30
0.0
 10
-0.3969214558601126
 20
-0.2917210757732391
 30
0.0
 10
-0.3969214558601126
 20
-0.2917210757732391
 30
0.0
 10
-0.4010815024375662
 20
-0.292974978685379
 30
0.0
 10
-0.4051281809806571
 20
-0.2913930416107178
 30
0.0
 10
-0.4073349237441763
 20
-0.2876502275466919
 30
0.0
 10
-0.4073349237441763
 20
-0.2876502275466919
 30
0.0
 10
-0.448886692523931
 20
-0.2171753793954849
 30
0.0
 10
-0.448886692523931
 20
-0.2171753793954849
 30
0.0
 10
-0.4510934352874503
 20
-0.2134325951337814
 30
0.0
 10
-0.4505186676978812
 20
-0.2091258615255356
 30
0.0
 10
-0.4474076628684744
 20
-0.2060927599668503
 30
0.0
 10
-0.4474076628684744
 20
-0.2060927599668503
 30
0.0
 10
-0.415754288434957
 20
-0.1752321422100067
 30
0.0
 10
-0.415754288434957
 20
-0.1752321422100067
 30
0.0
 10
-0.4123719036578879
 20
-0.1719344556331635
 30
0.0
 10
-0.4112910628318533
 20
-0.1673358529806137
 30
0.0
 10
-0.4128503203391776
 20
-0.162876695394516
 30
0.0
 10
-0.4128503203391776
 20
-0.162876695394516
 30
0.0
 10
-0.4243868887424216
 20
-0.1298844516277313
 30
0.0
 10
-0.4243868887424216
 20
-0.1298844516277313
 30
0.0
 10
-0.4259461462497458
 20
-0.1254252940416336
 30
0.0
 10
-0.4296571016311392
 20
-0.1225022748112679
 30
0.0
 10
-0.4343574345111594
 20
-0.1220309212803841
 30
0.0
 10
-0.4343574345111594
 20
-0.1220309212803841
 30
0.0
 10
-0.4783444404601798
 20
-0.1176198646426201
 30
0.0
 10
-0.4783444404601798
 20
-0.1176198646426201
 30
0.0
 10
-0.482667654752706
 20
-0.1171863302588463
 30
0.0
 10
-0.4858009219169364
 20
-0.1141762137413025
 30
0.0
 10
-0.486407399177526
 20
-0.1098738387227058
 30
0.0
 10
-0.486407399177526
 20
-0.1098738387227058
 30
0.0
 10
-0.4978266358375296
 20
-0.0288623943924904
 30
0.0
 10
-0.4978266358375296
 20
-0.0288623943924904
 30
0.0
 10
-0.4984331130981192
 20
-0.0245600175112486
 30
0.0
 10
-0.4962539970874533
 20
-0.0208010729402304
 30
0.0
 10
-0.4922190606593833
 20
-0.0191893819719553
 30
0.0
 10
-0.4922190606593833
 20
-0.0191893819719553
 30
0.0
 10
-0.4511653184890494
 20
-0.002791105769562
 30
0.0
 10
-0.4511653184890494
 20
-0.002791105769562
 30
0.0
 10
-0.4467784166335806
 20
-0.0010388281661891
 30
0.0
 10
-0.4440200328826651
 20
0.0027961053419985
 30
0.0
 10
-0.4437541663646445
 20
0.0075125284493096
 30
0.0
 10
-0.4437541663646445
 20
0.0075125284493096
 30
0.0
 10
-0.4417869746684775
 20
0.0424082390964158
 30
0.0
 10
-0.4417869746684775
 20
0.0424082390964158
 30
0.0
 10
-0.4415211081504569
 20
0.0471246615052349
 30
0.0
 10
-0.44383099675176
 20
0.051245309412492
 30
0.0
 10
-0.4479931592941031
 20
0.0534795261919625
 30
0.0
 10
-0.4479931592941031
 20
0.0534795261919625
 30
0.0
 10
-0.4869438111781821
 20
0.0743879005313046
 30
0.0
 10
-0.4869438111781821
 20
0.0743879005313046
 30
0.0
 10
-0.4907720386981711
 20
0.0764428675174839
 30
0.0
 10
-0.4925148785114035
 20
0.0804229006171353
 30
0.0
 10
-0.491428732871984
 20
0.0846298635006077
 30
0.0
 10
-0.491428732871984
 20
0.0846298635006077
 30
0.0
 10
-0.4709770083427176
 20
0.1638446301221974
 30
0.0
 10
-0.4709770083427176
 20
0.1638446301221974
 30
0.0
 10
-0.4698908627032981
 20
0.1680515855550892
 30
0.0
 10
-0.4664391279220328
 20
0.1706904917955525
 30
0.0
 10
-0.462094575166677
 20
0.1706354022026188
 30
0.0
 10
-0.462094575166677
 20
0.1706354022026188
 30
0.0
 10
-0.417890518903707
 20
0.1700748503208287
 30
0.0
 10
-0.417890518903707
 20
0.1700748503208287
 30
0.0
 10
-0.4131669700145468
 20
0.1700149476528294
 30
0.0
 10
-0.4091510176658377
 20
0.1725023835897572
 30
0.0
 10
-0.4071004688739523
 20
0.1767580360174305
 30
0.0
 10
-0.4071004688739523
 20
0.1767580360174305
 30
0.0
 10
-0.3919290304183707
 20
0.2082446664571888
 30
0.0
 10
-0.3919290304183707
 20
0.2082446664571888
 30
0.0
 10
-0.3898784816264853
 20
0.2125003188848622
 30
0.0
 10
-0.3904356360435233
 20
0.2171912640333302
 30
0.0
 10
-0.3934259712695822
 20
0.2208482027053959
 30
0.0
 10
-0.3934259712695822
 20
0.2208482027053959
 30
0.0
 10
-0.4214103817939505
 20
0.2550707757473118
 30
0.0
 10
-0.4214103817939505
 20
0.2550707757473118
 30
0.0
 10
-0.4241608083247885
 20
0.2584343254566319
 30
0.0
 10
-0.4242478907108054
 20
0.2627783715725071
 30
0.0
 10
-0.421634495258306
 20
0.2662494182586796
 30
0.0
 10
-0.421634495258306
 20
0.2662494182586796
 30
0.0
 10
-0.3724253773689017
 20
0.3316077888012058
 30
0.0
 10
-0.3724253773689017
 20
0.3316077888012058
 30
0.0
 10
-0.3698119819164024
 20
0.3350788652897007
 30
0.0
 10
-0.3656131327152
 20
0.3361959755420811
 30
0.0
 10
-0.3616203665733085
 20
0.3344824910164005
 30
0.0
 10
-0.3616203665733085
 20
0.3344824910164005
 30
0.0
 10
-0.3209956586360679
 20
0.3170484304428227
 30
0.0
 10
-0.3209956586360679
 20
0.3170484304428227
 30
0.0
 10
-0.3166546225547538
 20
0.3151854872703678
 30
0.0
 10
-0.3119924366473899
 20
0.3159467279911167
 30
0.0
 10
-0.3084694147109733
 20
0.3190937340259678
 30
0.0
 10
-0.3084694147109733
 20
0.3190937340259678
 30
0.0
 10
-0.2824034094810233
 20
0.3423777222633488
 30
0.0
 10
-0.2824034094810233
 20
0.3423777222633488
 30
0.0
 10
-0.2788803875446067
 20
0.3455247282981999
 30
0.0
 10
-0.2775999903678641
 20
0.3500718176365025
 30
0.0
 10
-0.2789632678031669
 20
0.3545947372913487
 30
0.0
 10
-0.2789632678031669
 20
0.3545947372913487
 30
0.0
 10
-0.2917210757732139
 20
0.3969214558601505
 30
0.0
 10
-0.2917210757732139
 20
0.3969214558601505
 30
0.0
 10
-0.2929749786853538
 20
0.4010815024376042
 30
0.0
 10
-0.2913930416106925
 20
0.405128180980695
 30
0.0
 10
-0.2876502275466666
 20
0.4073349237442143
 30
0.0
 10
-0.2876502275466666
 20
0.4073349237442143
 30
0.0
 10
-0.2171753793954849
 20
0.4488866925239689
 30
0.0
 10
-0.2171753793954849
 20
0.4488866925239689
 30
0.0
 10
-0.2134325951337814
 20
0.4510934352874882
 30
0.0
 10
-0.2091258615255356
 20
0.4505186676979191
 30
0.0
 10
-0.2060927599668503
 20
0.4474076628685124
 30
0.0
 10
-0.2060927599668503
 20
0.4474076628685124
 30
0.0
 10
-0.1752321422100067
 20
0.4157542884349949
 30
0.0
 10
-0.1752321422100067
 20
0.4157542884349949
 30
0.0
 10
-0.1719344556331635
 20
0.4123719036579258
 30
0.0
 10
-0.1673358529806137
 20
0.4112910628318913
 30
0.0
 10
-0.162876695394516
 20
0.4128503203392155
 30
0.0
 10
-0.162876695394516
 20
0.4128503203392155
 30
0.0
 10
-0.1298844516277313
 20
0.4243868887424595
 30
0.0
 10
-0.1298844516277313
 20
0.4243868887424595
 30
0.0
 10
-0.1254252940416336
 20
0.4259461462497837
 30
0.0
 10
-0.1225022748112679
 20
0.4296571016311772
 30
0.0
 10
-0.1220309212803841
 20
0.4343574345111973
 30
0.0
 10
-0.1220309212803841
 20
0.4343574345111973
 30
0.0
 10
-0.1176198646426201
 20
0.4783444404602177
 30
0.0
 10
-0.1176198646426201
 20
0.4783444404602177
 30
0.0
 10
-0.1171863302588463
 20
0.4826676547527439
 30
0.0
 10
-0.1141762137413025
 20
0.4858009219169743
 30
0.0
 10
-0.1098738387227058
 20
0.4864073991775639
 30
0.0
 10
-0.1098738387227058
 20
0.4864073991775639
 30
0.0
 10
-0.0288623943924904
 20
0.4978266358375675
 30
0.0
 10
-0.0288623943924904
 20
0.4978266358375675
 30
0.0
 10
-0.0245600175112486
 20
0.4984331130981571
 30
0.0
 10
-0.0208010729402304
 20
0.4962539970874912
 30
0.0
 10
-0.0191893819719553
 20
0.4922190606594212
 30
0.0
 10
-0.0191893819719553
 20
0.4922190606594212
 30
0.0
 10
-0.0027911057695746
 20
0.4511653184890873
 30
0.0
 10
-0.0027911057695746
 20
0.4511653184890873
 30
0.0
 10
-0.0010388281662017
 20
0.4467784166336186
 30
0.0
 10
0.0027961053419858
 20
0.444020032882703
 30
0.0
 10
0.007512528449297
 20
0.4437541663646824
 30
0.0
 10
0.007512528449297
 20
0.4437541663646824
 30
0.0
 10
0.0424082390964031
 20
0.4417869746685154
 30
0.0
 10
0.0424082390964031
 20
0.4417869746685154
 30
0.0
 10
0.0471246615052223
 20
0.4415211081504948
 30
0.0
 10
0.0512453094124794
 20
0.4438309967517979
 30
0.0
 10
0.0534795261919498
 20
0.447993159294141
 30
0.0
 10
0.0534795261919498
 20
0.447993159294141
 30
0.0
 10
0.074387900531292
 20
0.48694381117822
 30
0.0
 10
0.074387900531292
 20
0.48694381117822
 30
0.0
 10
0.0764428675174713
 20
0.490772038698209
 30
0.0
 10
0.0804229006171227
 20
0.4925148785114414
 30
0.0
 10
0.0846298635005951
 20
0.4914287328720219
 30
0.0
 10
0.0846298635005951
 20
0.4914287328720219
 30
0.0
 10
0.1638446301221848
 20
0.4709770083427555
 30
0.0
 10
0.1638446301221848
 20
0.4709770083427555
 30
0.0
 10
0.1680515855550766
 20
0.469890862703336
 30
0.0
 10
0.1706904917955399
 20
0.4664391279220707
 30
0.0
 10
0.1706354022026062
 20
0.4620945751667149
 30
0.0
 10
0.1706354022026062
 20
0.4620945751667149
 30
0.0
 10
0.170074850320816
 20
0.4178905189037449
 30
0.0
 10
0.170074850320816
 20
0.4178905189037449
 30
0.0
 10
0.1700149476528168
 20
0.4131669700145847
 30
0.0
 10
0.1725023835897446
 20
0.4091510176658756
 30
0.0
 10
0.1767580360174179
 20
0.4071004688739903
 30
0.0
 10
0.1767580360174179
 20
0.4071004688739903
 30
0.0
 10
0.2082446664571762
 20
0.3919290304184086
 30
0.0
 10
0.2082446664571762
 20
0.3919290304184086
 30
0.0
 10
0.2125003188848495
 20
0.3898784816265232
 30
0.0
 10
0.2171912640333176
 20
0.3904356360435612
 30
0.0
 10
0.2208482027053833
 20
0.3934259712696201
 30
0.0
 10
0.2208482027053833
 20
0.3934259712696201
 30
0.0
 10
0.2550707757472992
 20
0.4214103817939884
 30
0.0
 10
0.2550707757472992
 20
0.4214103817939884
 30
0.0
 10
0.2584343254566193
 20
0.4241608083248264
 30
0.0
 10
0.2627783715724945
 20
0.4242478907108433
 30
0.0
 10
0.266249418258667
 20
0.4216344952583439
 30
0.0
 10
0.266249418258667
 20
0.4216344952583439
 30
0.0
 10
0.3316077888011932
 20
0.3724253773689396
 30
0.0
 10
0.3316077888011932
 20
0.3724253773689396
 30
0.0
 10
0.3350788652896881
 20
0.3698119819164402
 30
0.0
 10
0.3361959755420685
 20
0.3656131327152378
 30
0.0
 10
0.3344824910163879
 20
0.3616203665733463
 30
0.0
 10
0.3344824910163879
 20
0.3616203665733463
 30
0.0
 10
0.3170484304428101
 20
0.3209956586361057
 30
0.0
 10
0.3170484304428101
 20
0.3209956586361057
 30
0.0
 10
0.3151854872703552
 20
0.3166546225547917
 30
0.0
 10
0.3159467279911041
 20
0.3119924366474278
 30
0.0
 10
0.3190937340259552
 20
0.3084694147110111
 30
0.0
 10
0.3190937340259552
 20
0.3084694147110111
 30
0.0
 10
0.3423777222633362
 20
0.2824034094810612
 30
0.0
 10
0.3423777222633362
 20
0.2824034094810612
 30
0.0
 10
0.3455247282981873
 20
0.2788803875446446
 30
0.0
 10
0.3500718176364899
 20
0.277599990367902
 30
0.0
 10
0.3545947372913361
 20
0.2789632678032047
 30
0.0
 10
0.3545947372913361
 20
0.2789632678032047
 30
0.0
 10
0.3969214558601379
 20
0.2917210757732517
 30
0.0
 10
0.3969214558601379
 20
0.2917210757732517
 30
0.0
 10
0.4010815024375916
 20
0.2929749786853916
 30
0.0
 10
0.4051281809806824
 20
0.2913930416107304
 30
0.0
 10
0.4073349237442017
 20
0.2876502275467045
 30
0.0
 10
0.4073349237442017
 20
0.2876502275467045
 30
0.0
 10
0.4488866925239563
 20
0.2171753793954976
 30
0.0
 10
0.4488866925239563
 20
0.2171753793954976
 30
0.0
 10
0.4510934352874756
 20
0.2134325951337941
 30
0.0
 10
0.4505186676979065
 20
0.2091258615255482
 30
0.0
 10
0.4474076628684998
 20
0.2060927599668629
 30
0.0
 10
0.4474076628684998
 20
0.2060927599668629
 30
0.0
 10
0.4157542884349823
 20
0.1752321422100193
 30
0.0
 10
0.4157542884349823
 20
0.1752321422100193
 30
0.0
 10
0.4123719036579132
 20
0.1719344556331761
 30
0.0
 10
0.4112910628318787
 20
0.1673358529806263
 30
0.0
 10
0.4128503203392029
 20
0.1628766953945286
 30
0.0
 10
0.4128503203392029
 20
0.1628766953945286
 30
0.0
 10
0.4243868887424469
 20
0.129884451627744
 30
0.0
 10
0.4243868887424469
 20
0.129884451627744
 30
0.0
 10
0.4259461462497711
 20
0.1254252940416462
 30
0.0
 10
0.4296571016311646
 20
0.1225022748112805
 30
0.0
 10
0.4343574345111847
 20
0.1220309212803967
 30
0.0
 10
0.4343574345111847
 20
0.1220309212803967
 30
0.0
 10
0.4783444404602051
 20
0.1176198646426327
 30
0.0
 10
0.4783444404602051
 20
0.1176198646426327
 30
0.0
 10
0.4826676547527313
 20
0.1171863302588589
 30
0.0
 10
0.4858009219169617
 20
0.1141762137413151
 30
0.0
 10
0.4864073991775513
 20
0.1098738387227185
 30
0.0
 10
0.4864073991775513
 20
0.1098738387227185
 30
0.0
 10
0.4978266358375549
 20
0.028862394392503
 30
0.0
 10
0.4978266358375549
 20
0.028862394392503
 30
0.0
 10
0.4984331130981445
 20
0.0245600175112612
 30
0.0
 10
0.4962539970874786
 20
0.020801072940243
 30
0.0
 10
0.4922190606594086
 20
0.0191893819719679
 30
0.0
 10
0.4922190606594086
 20
0.0191893819719679
 30
0.0
 10
0.4511653184890747
 20
0.0027911057695873
 30
0.0
 10
0.4511653184890747
 20
0.0027911057695873
 30
0.0
  0
SPLINE
  5
43
330
1F
100
AcDbEntity
  8
Layer 1
370
     0
100
AcDbSpline
210
0.0
220
0.0
230
1.0
 70
    11
 71
     3
 72
    17
 73
    13
 74
     0
 42
0.0000000001
 43
0.0000000001
 12
1.0
 22
0.0
 32
0.0
 13
1.0
 23
0.0
 33
0.0
 40
0.0
 40
0.0
 40
0.0
 40
0.0
 40
1.0
 40
1.0
 40
1.0
 40
2.0
 40
2.0
 40
2.0
 40
3.0
 40
3.0
 40
3.0
 40
4.0
 40
4.0
 40
4.0
 40
4.0
 10
0.0984251968504092
 20
0.0
 30
0.0
 10
0.0984251968504092
 20
-0.0543587352165357
 30
0.0
 10
0.0543587352165357
 20
-0.0984251968504092
 30
0.0
 10
0.0
 20
-0.0984251968504092
 30
0.0
 10
-0.0543587352165357
 20
-0.0984251968504092
 30
0.0
 10
-0.098425196850384
 20
-0.0543587352165357
 30
0.0
 10
-0.098425196850384
 20
0.0
 30
0.0
 10
-0.098425196850384
 20
0.0543587352165357
 30
0.0
 10
-0.0543587352165357
 20
0.0984251968503966
 30
0.0
 10
0.0
 20
0.0984251968503966
 30
0.0
 10
0.0543587352165357
 20
0.0984251968503966
 30
0.0
 10
0.0984251968504092
 20
0.0543587352165357
 30
0.0
 10
0.0984251968504092
 20
0.0
 30
0.0
  0
ENDSEC
  0
SECTION
  2
OBJECTS
  0
DICTIONARY
  5
C
330
0
100
AcDbDictionary
281
     1
  3
ACAD_GROUP
350
D
  3
ACAD_LAYOUT
350
1A
  3
ACAD_MATERIAL
350
3B
  3
ACAD_MLEADERSTYLE
350
45
  3
ACAD_MLINESTYLE
350
17
  3
ACAD_PLOTSETTINGS
350
19
  3
ACAD_PLOTSTYLENAME
350
E
  3
ACAD_TABLESTYLE
350
44
  3
ACAD_VISUALSTYLE
350
2A
  0
SUN
  5
3F
330
29
100
AcDbSun
 90
        1
290
     0
 63
     7
421
 16777215
 40
1.0
291
     1
 91
  2455826
 92
 54000000
292
     0
 70
     2
 71
   256
280
     1
  0
DICTIONARY
  5
D
102
{ACAD_REACTORS
330
C
102
}
330
C
100
AcDbDictionary
281
     1
  0
DICTIONARY
  5
1A
102
{ACAD_REACTORS
330
C
102
}
330
C
100
AcDbDictionary
281
     1
  3
Layout1
350
1E
  3
Layout2
350
26
  3
Model
350
22
  0
DICTIONARY
  5
3B
102
{ACAD_REACTORS
330
C
102
}
330
C
100
AcDbDictionary
281
     1
  3
ByBlock
350
3D
  3
ByLayer
350
3C
  3
Global
350
3E
  0
DICTIONARY
  5
45
102
{ACAD_REACTORS
330
C
102
}
330
C
100
AcDbDictionary
281
     1
  0
DICTIONARY
  5
17
102
{ACAD_REACTORS
330
C
102
}
330
C
100
AcDbDictionary
281
     1
  3
Standard
350
18
  0
DICTIONARY
  5
19
102
{ACAD_REACTORS
330
C
102
}
330
C
100
AcDbDictionary
281
     1
  0
ACDBDICTIONARYWDFLT
  5
E
102
{ACAD_REACTORS
330
C
102
}
330
C
100
AcDbDictionary
281
     1
  3
Normal
350
F
100
AcDbDictionaryWithDefault
340
F
  0
DICTIONARY
  5
44
102
{ACAD_REACTORS
330
C
102
}
330
C
100
AcDbDictionary
281
     1
  0
DICTIONARY
  5
2A
102
{ACAD_REACTORS
330
C
102
}
330
C
100
AcDbDictionary
281
     1
  3
2dWireframe
350
2F
  3
3D Hidden
350
31
  3
3dWireframe
350
30
  3
Basic
350
32
  3
Brighten
350
36
  3
ColorChange
350
3A
  3
Conceptual
350
34
  3
Dim
350
35
  3
Facepattern
350
39
  3
Flat
350
2B
  3
FlatWithEdges
350
2C
  3
Gouraud
350
2D
  3
GouraudWithEdges
350
2E
  3
Linepattern
350
38
  3
Realistic
350
33
  3
Thicken
350
37
  0
LAYOUT
  5
1E
102
{ACAD_REACTORS
330
1A
102
}
330
1A
100
AcDbPlotSettings
  1

  2
none_device
  4

  6

 40
0.0
 41
0.0
 42
0.0
 43
0.0
 44
0.0
 45
0.0
 46
0.0
 47
0.0
 48
0.0
 49
0.0
140
0.0
141
0.0
142
1.0
143
1.0
 70
   688
 72
     0
 73
     0
 74
     5
  7

 75
    16
 76
     0
 77
     2
 78
   300
147
1.0
148
0.0
149
0.0
100
AcDbLayout
  1
Layout1
 70
     1
 71
     1
 10
0.0
 20
0.0
 11
12.0
 21
9.0
 12
0.0
 22
0.0
 32
0.0
 14
1.000000000000000E+20
 24
1.000000000000000E+20
 34
1.000000000000000E+20
 15
-1.000000000000000E+20
 25
-1.000000000000000E+20
 35
-1.000000000000000E+20
146
0.0
 13
0.0
 23
0.0
 33
0.0
 16
1.0
 26
0.0
 36
0.0
 17
0.0
 27
1.0
 37
0.0
 76
     0
330
1B
  0
LAYOUT
  5
26
102
{ACAD_REACTORS
330
1A
102
}
330
1A
100
AcDbPlotSettings
  1

  2
none_device
  4

  6

 40
0.0
 41
0.0
 42
0.0
 43
0.0
 44
0.0
 45
0.0
 46
0.0
 47
0.0
 48
0.0
 49
0.0
140
0.0
141
0.0
142
1.0
143
1.0
 70
   688
 72
     0
 73
     0
 74
     5
  7

 75
    16
 76
     0
 77
     2
 78
   300
147
1.0
148
0.0
149
0.0
100
AcDbLayout
  1
Layout2
 70
     1
 71
     2
 10
0.0
 20
0.0
 11
0.0
 21
0.0
 12
0.0
 22
0.0
 32
0.0
 14
0.0
 24
0.0
 34
0.0
 15
0.0
 25
0.0
 35
0.0
146
0.0
 13
0.0
 23
0.0
 33
0.0
 16
1.0
 26
0.0
 36
0.0
 17
0.0
 27
1.0
 37
0.0
 76
     0
330
23
  0
LAYOUT
  5
22
102
{ACAD_REACTORS
330
1A
102
}
330
1A
100
AcDbPlotSettings
  1

  2
none_device
  4

  6

 40
0.0
 41
0.0
 42
0.0
 43
0.0
 44
0.0
 45
0.0
 46
0.0
 47
0.0
 48
0.0
 49
0.0
140
0.0
141
0.0
142
1.0
143
1.0
 70
  1712
 72
     0
 73
     0
 74
     0
  7

 75
     0
 76
     0
 77
     2
 78
   300
147
1.0
148
0.0
149
0.0
100
AcDbLayout
  1
Model
 70
     1
 71
     0
 10
0.0
 20
0.0
 11
12.0
 21
9.0
 12
0.0
 22
0.0
 32
0.0
 14
1.000000000000000E+20
 24
1.000000000000000E+20
 34
1.000000000000000E+20
 15
-1.000000000000000E+20
 25
-1.000000000000000E+20
 35
-1.000000000000000E+20
146
0.0
 13
0.0
 23
0.0
 33
0.0
 16
1.0
 26
0.0
 36
0.0
 17
0.0
 27
1.0
 37
0.0
 76
     0
330
1F
331
29
  0
MATERIAL
  5
3D
102
{ACAD_REACTORS
330
3B
102
}
330
3B
100
AcDbMaterial
  1
ByBlock
 72
     1
 94
      127
  0
MATERIAL
  5
3C
102
{ACAD_REACTORS
330
3B
102
}
330
3B
100
AcDbMaterial
  1
ByLayer
 72
     1
 94
      127
  0
MATERIAL
  5
3E
102
{ACAD_REACTORS
330
3B
102
}
330
3B
100
AcDbMaterial
  1
Global
 72
     1
 94
      127
  0
MLINESTYLE
  5
18
102
{ACAD_REACTORS
330
17
102
}
330
17
100
AcDbMlineStyle
  2
Standard
 70
     0
  3

 62
   256
 51
90.0
 52
90.0
 71
     2
 49
0.5
 62
   256
  6
BYLAYER
 49
-0.5
 62
   256
  6
BYLAYER
  0
ACDBPLACEHOLDER
  5
F
102
{ACAD_REACTORS
330
E
102
}
330
E
  0
VISUALSTYLE
  5
2F
102
{ACAD_REACTORS
330
2A
102
}
330
2A
100
AcDbVisualStyle
  2
2dWireframe
 70
     4
177
     2
291
     0
 71
     0
176
     1
 72
     2
176
     1
 73
     0
176
     1
 90
        0
176
     1
 40
-0.6
176
     1
 41
-30.0
176
     1
 62
     5
 63
     7
421
 16777215
176
     1
 74
     1
176
     1
 91
        4
176
     1
 64
     7
176
     1
 65
   257
176
     1
 75
     1
176
     1
175
     1
176
     1
 42
1.0
176
     1
 92
        0
176
     1
 66
   257
176
     1
 43
1.0
176
     1
 76
     1
176
     1
 77
     6
176
     1
 78
     2
176
     1
 67
     7
176
     1
 79
     5
176
     1
170
     0
176
     1
171
     0
176
     1
290
     0
176
     1
 93
        1
176
     1
 44
0.0
176
     1
173
     0
176
     1
  0
VISUALSTYLE
  5
31
102
{ACAD_REACTORS
330
2A
102
}
330
2A
100
AcDbVisualStyle
  2
3D Hidden
 70
     6
177
     2
291
     0
 71
     1
176
     1
 72
     2
176
     1
 73
     2
176
     1
 90
        0
176
     1
 40
-0.6
176
     1
 41
-30.0
176
     1
 62
     5
 63
     7
421
 16777215
176
     1
 74
     2
176
     1
 91
        2
176
     1
 64
     7
176
     1
 65
   257
176
     1
 75
     2
176
     1
175
     1
176
     1
 42
40.0
176
     1
 92
        0
176
     1
 66
   257
176
     1
 43
1.0
176
     1
 76
     1
176
     1
 77
     6
176
     1
 78
     2
176
     1
 67
     7
176
     1
 79
     3
176
     1
170
     0
176
     1
171
     0
176
     1
290
     0
176
     1
 93
        1
176
     1
 44
0.0
176
     1
173
     0
176
     1
  0
VISUALSTYLE
  5
30
102
{ACAD_REACTORS
330
2A
102
}
330
2A
100
AcDbVisualStyle
  2
3dWireframe
 70
     5
177
     2
291
     0
 71
     0
176
     1
 72
     2
176
     1
 73
     0
176
     1
 90
        0
176
     1
 40
-0.6
176
     1
 41
-30.0
176
     1
 62
     5
 63
     7
421
 16777215
176
     1
 74
     1
176
     1
 91
        4
176
     1
 64
     7
176
     1
 65
   257
176
     1
 75
     1
176
     1
175
     1
176
     1
 42
1.0
176
     1
 92
        0
176
     1
 66
   257
176
     1
 43
1.0
176
     1
 76
     1
176
     1
 77
     6
176
     1
 78
     2
176
     1
 67
     7
176
     1
 79
     5
176
     1
170
     0
176
     1
171
     0
176
     1
290
     0
176
     1
 93
        1
176
     1
 44
0.0
176
     1
173
     0
176
     1
  0
VISUALSTYLE
  5
32
102
{ACAD_REACTORS
330
2A
102
}
330
2A
100
AcDbVisualStyle
  2
Basic
 70
     7
177
     2
291
     1
 71
     1
176
     1
 72
     0
176
     1
 73
     1
176
     1
 90
        0
176
     1
 40
-0.6
176
     1
 41
-30.0
176
     1
 62
     5
 63
     7
421
 16777215
176
     1
 74
     0
176
     1
 91
        4
176
     1
 64
     7
176
     1
 65
   257
176
     1
 75
     1
176
     1
175
     1
176
     1
 42
1.0
176
     1
 92
        8
176
     1
 66
     7
176
     1
 43
1.0
176
     1
 76
     1
176
     1
 77
     6
176
     1
 78
     2
176
     1
 67
     7
176
     1
 79
     5
176
     1
170
     0
176
     1
171
     0
176
     1
290
     0
176
     1
 93
        1
176
     1
 44
0.0
176
     1
173
     0
176
     1
  0
VISUALSTYLE
  5
36
102
{ACAD_REACTORS
330
2A
102
}
330
2A
100
AcDbVisualStyle
  2
Brighten
 70
    12
177
     2
291
     1
 71
     2
176
     1
 72
     2
176
     1
 73
     0
176
     1
 90
        0
176
     1
 40
-0.6
176
     1
 41
-30.0
176
     1
 62
     5
 63
     7
421
 16777215
176
     1
 74
     1
176
     1
 91
        4
176
     1
 64
     7
176
     1
 65
   257
176
     1
 75
     1
176
     1
175
     1
176
     1
 42
1.0
176
     1
 92
        8
176
     1
 66
     7
176
     1
 43
1.0
176
     1
 76
     1
176
     1
 77
     6
176
     1
 78
     2
176
     1
 67
     7
176
     1
 79
     5
176
     1
170
     0
176
     1
171
     0
176
     1
290
     0
176
     1
 93
        1
176
     1
 44
50.0
176
     1
173
     0
176
     1
  0
VISUALSTYLE
  5
3A
102
{ACAD_REACTORS
330
2A
102
}
330
2A
100
AcDbVisualStyle
  2
ColorChange
 70
    16
177
     2
291
     1
 71
     2
176
     1
 72
     2
176
     1
 73
     3
176
     1
 90
        0
176
     1
 40
-0.6
176
     1
 41
-30.0
176
     1
 62
     5
 63
     8
421
  8421504
176
     1
 74
     1
176
     1
 91
        4
176
     1
 64
     7
176
     1
 65
   257
176
     1
 75
     1
176
     1
175
     1
176
     1
 42
1.0
176
     1
 92
        8
176
     1
 66
     8
424
  8421504
176
     1
 43
1.0
176
     1
 76
     1
176
     1
 77
     6
176
     1
 78
     2
176
     1
 67
     7
176
     1
 79
     5
176
     1
170
     0
176
     1
171
     0
176
     1
290
     0
176
     1
 93
        1
176
     1
 44
0.0
176
     1
173
     0
176
     1
  0
VISUALSTYLE
  5
34
102
{ACAD_REACTORS
330
2A
102
}
330
2A
100
AcDbVisualStyle
  2
Conceptual
 70
     9
177
     2
291
     0
 71
     3
176
     1
 72
     2
176
     1
 73
     0
176
     1
 90
        0
176
     1
 40
-0.6
176
     1
 41
-30.0
176
     1
 62
     5
 63
     7
421
 16777215
176
     1
 74
     2
176
     1
 91
        2
176
     1
 64
     7
176
     1
 65
   257
176
     1
 75
     1
176
     1
175
     1
176
     1
 42
40.0
176
     1
 92
        8
176
     1
 66
     7
176
     1
 43
1.0
176
     1
 76
     1
176
     1
 77
     6
176
     1
 78
     2
176
     1
 67
     7
176
     1
 79
     3
176
     1
170
     0
176
     1
171
     0
176
     1
290
     0
176
     1
 93
        1
176
     1
 44
0.0
176
     1
173
     0
176
     1
  0
VISUALSTYLE
  5
35
102
{ACAD_REACTORS
330
2A
102
}
330
2A
100
AcDbVisualStyle
  2
Dim
 70
    11
177
     2
291
     1
 71
     2
176
     1
 72
     2
176
     1
 73
     0
176
     1
 90
        0
176
     1
 40
-0.6
176
     1
 41
-30.0
176
     1
 62
     5
 63
     7
421
 16777215
176
     1
 74
     1
176
     1
 91
        4
176
     1
 64
     7
176
     1
 65
   257
176
     1
 75
     1
176
     1
175
     1
176
     1
 42
1.0
176
     1
 92
        8
176
     1
 66
     7
176
     1
 43
1.0
176
     1
 76
     1
176
     1
 77
     6
176
     1
 78
     2
176
     1
 67
     7
176
     1
 79
     5
176
     1
170
     0
176
     1
171
     0
176
     1
290
     0
176
     1
 93
        1
176
     1
 44
-50.0
176
     1
173
     0
176
     1
  0
VISUALSTYLE
  5
39
102
{ACAD_REACTORS
330
2A
102
}
330
2A
100
AcDbVisualStyle
  2
Facepattern
 70
    15
177
     2
291
     1
 71
     2
176
     1
 72
     2
176
     1
 73
     0
176
     1
 90
        0
176
     1
 40
-0.6
176
     1
 41
-30.0
176
     1
 62
     5
 63
     7
421
 16777215
176
     1
 74
     1
176
     1
 91
        4
176
     1
 64
     7
176
     1
 65
   257
176
     1
 75
     1
176
     1
175
     1
176
     1
 42
1.0
176
     1
 92
        8
176
     1
 66
     7
176
     1
 43
1.0
176
     1
 76
     1
176
     1
 77
     6
176
     1
 78
     2
176
     1
 67
     7
176
     1
 79
     5
176
     1
170
     0
176
     1
171
     0
176
     1
290
     0
176
     1
 93
        1
176
     1
 44
0.0
176
     1
173
     0
176
     1
  0
VISUALSTYLE
  5
2B
102
{ACAD_REACTORS
330
2A
102
}
330
2A
100
AcDbVisualStyle
  2
Flat
 70
     0
177
     2
291
     1
 71
     2
176
     1
 72
     1
176
     1
 73
     1
176
     1
 90
        2
176
     1
 40
-0.6
176
     1
 41
30.0
176
     1
 62
     5
 63
     7
421
 16777215
176
     1
 74
     0
176
     1
 91
        4
176
     1
 64
     7
176
     1
 65
   257
176
     1
 75
     1
176
     1
175
     1
176
     1
 42
1.0
176
     1
 92
        8
176
     1
 66
     7
176
     1
 43
1.0
176
     1
 76
     1
176
     1
 77
     6
176
     1
 78
     2
176
     1
 67
     7
176
     1
 79
     5
176
     1
170
     0
176
     1
171
     0
176
     1
290
     0
176
     1
 93
       13
176
     1
 44
0.0
176
     1
173
     0
176
     1
  0
VISUALSTYLE
  5
2C
102
{ACAD_REACTORS
330
2A
102
}
330
2A
100
AcDbVisualStyle
  2
FlatWithEdges
 70
     1
177
     2
291
     1
 71
     2
176
     1
 72
     1
176
     1
 73
     1
176
     1
 90
        2
176
     1
 40
-0.6
176
     1
 41
30.0
176
     1
 62
     5
 63
     7
421
 16777215
176
     1
 74
     1
176
     1
 91
        4
176
     1
 64
     7
176
     1
 65
   257
176
     1
 75
     1
176
     1
175
     1
176
     1
 42
1.0
176
     1
 92
        0
176
     1
 66
   257
176
     1
 43
1.0
176
     1
 76
     1
176
     1
 77
     6
176
     1
 78
     2
176
     1
 67
     7
176
     1
 79
     5
176
     1
170
     0
176
     1
171
     0
176
     1
290
     0
176
     1
 93
       13
176
     1
 44
0.0
176
     1
173
     0
176
     1
  0
VISUALSTYLE
  5
2D
102
{ACAD_REACTORS
330
2A
102
}
330
2A
100
AcDbVisualStyle
  2
Gouraud
 70
     2
177
     2
291
     1
 71
     2
176
     1
 72
     2
176
     1
 73
     1
176
     1
 90
        2
176
     1
 40
-0.6
176
     1
 41
30.0
176
     1
 62
     5
 63
     7
421
 16777215
176
     1
 74
     0
176
     1
 91
        4
176
     1
 64
     7
176
     1
 65
   257
176
     1
 75
     1
176
     1
175
     1
176
     1
 42
1.0
176
     1
 92
        0
176
     1
 66
     7
176
     1
 43
1.0
176
     1
 76
     1
176
     1
 77
     6
176
     1
 78
     2
176
     1
 67
     7
176
     1
 79
     5
176
     1
170
     0
176
     1
171
     0
176
     1
290
     0
176
     1
 93
       13
176
     1
 44
0.0
176
     1
173
     0
176
     1
  0
VISUALSTYLE
  5
2E
102
{ACAD_REACTORS
330
2A
102
}
330
2A
100
AcDbVisualStyle
  2
GouraudWithEdges
 70
     3
177
     2
291
     1
 71
     2
176
     1
 72
     2
176
     1
 73
     1
176
     1
 90
        2
176
     1
 40
-0.6
176
     1
 41
30.0
176
     1
 62
     5
 63
     7
421
 16777215
176
     1
 74
     1
176
     1
 91
        4
176
     1
 64
     7
176
     1
 65
   257
176
     1
 75
     1
176
     1
175
     1
176
     1
 42
1.0
176
     1
 92
        0
176
     1
 66
   257
176
     1
 43
1.0
176
     1
 76
     1
176
     1
 77
     6
176
     1
 78
     2
176
     1
 67
     7
176
     1
 79
     5
176
     1
170
     0
176
     1
171
     0
176
     1
290
     0
176
     1
 93
       13
176
     1
 44
0.0
176
     1
173
     0
176
     1
  0
VISUALSTYLE
  5
38
102
{ACAD_REACTORS
330
2A
102
}
330
2A
100
AcDbVisualStyle
  2
Linepattern
 70
    14
177
     2
291
     1
 71
     2
176
     1
 72
     2
176
     1
 73
     0
176
     1
 90
        0
176
     1
 40
-0.6
176
     1
 41
-30.0
176
     1
 62
     5
 63
     7
421
 16777215
176
     1
 74
     1
176
     1
 91
        4
176
     1
 64
     7
176
     1
 65
   257
176
     1
 75
     7
176
     1
175
     7
176
     1
 42
1.0
176
     1
 92
        8
176
     1
 66
     7
176
     1
 43
1.0
176
     1
 76
     1
176
     1
 77
     6
176
     1
 78
     2
176
     1
 67
     7
176
     1
 79
     5
176
     1
170
     0
176
     1
171
     0
176
     1
290
     0
176
     1
 93
        1
176
     1
 44
0.0
176
     1
173
     0
176
     1
  0
VISUALSTYLE
  5
33
102
{ACAD_REACTORS
330
2A
102
}
330
2A
100
AcDbVisualStyle
  2
Realistic
 70
     8
177
     2
291
     0
 71
     2
176
     1
 72
     2
176
     1
 73
     0
176
     1
 90
        0
176
     1
 40
-0.6
176
     1
 41
-30.0
176
     1
 62
     5
 63
     7
421
 16777215
176
     1
 74
     1
176
     1
 91
        0
176
     1
 64
     7
176
     1
 65
   257
176
     1
 75
     1
176
     1
175
     1
176
     1
 42
1.0
176
     1
 92
        8
176
     1
 66
     8
424
  7895160
176
     1
 43
1.0
176
     1
 76
     1
176
     1
 77
     6
176
     1
 78
     2
176
     1
 67
     7
176
     1
 79
     5
176
     1
170
     0
176
     1
171
     0
176
     1
290
     0
176
     1
 93
       13
176
     1
 44
0.0
176
     1
173
     0
176
     1
  0
VISUALSTYLE
  5
37
102
{ACAD_REACTORS
330
2A
102
}
330
2A
100
AcDbVisualStyle
  2
Thicken
 70
    13
177
     2
291
     1
 71
     2
176
     1
 72
     2
176
     1
 73
     0
176
     1
 90
        0
176
     1
 40
-0.6
176
     1
 41
-30.0
176
     1
 62
     5
 63
     7
421
 16777215
176
     1
 74
     1
176
     1
 91
        4
176
     1
 64
     7
176
     1
 65
   257
176
     1
 75
     1
176
     1
175
     1
176
     1
 42
1.0
176
     1
 92
       12
176
     1
 66
     7
176
     1
 43
1.0
176
     1
 76
     1
176
     1
 77
     6
176
     1
 78
     2
176
     1
 67
     7
176
     1
 79
     5
176
     1
170
     0
176
     1
171
     0
176
     1
290
     0
176
     1
 93
        1
176
     1
 44
0.0
176
     1
173
     0
176
     1
  0
ENDSEC
  0
EOF
